<svg xmlns="http://www.w3.org/2000/svg" xmlns:xlink="http://www.w3.org/1999/xlink" viewBox="0 0 337 213" xmlns:v="https://vecta.io/nano"><style><![CDATA[.E{fill:#6988ff}.F{fill:#ffa897}]]></style><path d="M37.3 119.6h15.8v50.9H37.3zM61 102h15.8v68.5H61zm23.6-22.3h15.8v90.8H84.6zm23.6-16.6H124v107.4h-15.8zM131.6 89h15.8v81.5h-15.8zm23.6-15.3H171v96.8h-15.8zm23.7 6h15.8v90.8h-15.8zm23.6 17.7h15.8v73.1h-15.8zm23.3 0h15.8v73.1h-15.8zm23.7-23.7h15.8v96.8h-15.8zm23.6 23.7h15.8v73.1h-15.8zm23.7-11.6h15.8v84.7h-15.8z" fill="#fd6880"/><path d="M37.3 119.6h15.8V152H37.3z" class="E"/><path d="M37.3 119.6h15.8v13.8H37.3z" class="F"/><path d="M61 102h15.8v56.1H61z" class="E"/><path d="M61 102h15.8v16.2H61z" class="F"/><path d="M84.6 79.7h15.8v69.6H84.6z" class="E"/><path d="M84.6 79.7h15.8v26.7H84.6z" class="F"/><path d="M108.2 63.1H124v71.3h-15.8z" class="E"/><path d="M108.2 63.1H124v17.3h-15.8z" class="F"/><path d="M131.6 89h15.8v36.6h-15.8z" class="E"/><path d="M131.6 89h15.8v25.2h-15.8z" class="F"/><path d="M155.2 73.7H171v70.4h-15.8z" class="E"/><path d="M155.2 73.7H171v26.4h-15.8z" class="F"/><path d="M178.9 79.7h15.8v46.9h-15.8z" class="E"/><path d="M178.9 79.7h15.8v13.2h-15.8z" class="F"/><path d="M202.5 97.4h15.8v59h-15.8z" class="E"/><path d="M202.5 97.4h15.8v22.2h-15.8z" class="F"/><path d="M225.8 97.4h15.8v48.5h-15.8z" class="E"/><path d="M225.8 97.4h15.8v30.5h-15.8z" class="F"/><path d="M249.5 73.7h15.8v46.9h-15.8z" class="E"/><path d="M249.5 73.7h15.8v17.1h-15.8z" class="F"/><path d="M273.1 97.4h15.8v50.7h-15.8z" class="E"/><path d="M273.1 97.4h15.8V117h-15.8z" class="F"/><path d="M296.8 85.8h15.8v57h-15.8z" class="E"/><path d="M296.8 85.8h15.8V107h-15.8z" class="F"/><g fill="#b9c1db"><path d="M305.2 180.8H27.6c-.6 0-1-.5-1-1V36c0-.6.5-1 1-1a1.08 1.08 0 0 1 1 1v142.8h276.6c.6 0 1 .5 1 1s-.4 1-1 1z"/><use xlink:href="#B"/><use xlink:href="#C"/><use xlink:href="#B" x="47.3"/><use xlink:href="#B" x="70.9"/><use xlink:href="#C" x="70.9"/><use xlink:href="#B" x="118.2"/><use xlink:href="#C" x="118.2"/><use xlink:href="#B" x="165.5"/><use xlink:href="#B" x="189.1"/><path d="M261.2,179.8c0,1.8-1.5,3.3-3.3,3.3s-3.3-1.5-3.3-3.3c0-1.8,1.5-3.3,3.3-3.3S261.2,178,261.2,179.8z"/><use xlink:href="#B" x="236.4"/><path d="M308.5 179.8a3.33 3.33 0 0 1-3.3 3.3 3.33 3.33 0 0 1-3.3-3.3 3.33 3.33 0 0 1 3.3-3.3 3.33 3.33 0 0 1 3.3 3.3zM31 161.8a3.33 3.33 0 0 1-3.3 3.3 3.33 3.33 0 0 1-3.3-3.3 3.33 3.33 0 0 1 3.3-3.3c1.9 0 3.3 1.4 3.3 3.3zm0-21.5a3.33 3.33 0 0 1-3.3 3.3 3.33 3.33 0 0 1-3.3-3.3 3.33 3.33 0 0 1 3.3-3.3c1.9 0 3.3 1.5 3.3 3.3z"/><use xlink:href="#C" x="-41.1" y="-60.9"/><path d="M31 97.5a3.33 3.33 0 0 1-3.3 3.3 3.33 3.33 0 0 1-3.3-3.3 3.33 3.33 0 0 1 3.3-3.3c1.9 0 3.3 1.5 3.3 3.3zM31 76a3.33 3.33 0 0 1-3.3 3.3 3.33 3.33 0 0 1-3.3-3.3 3.33 3.33 0 0 1 3.3-3.3c1.9.1 3.3 1.5 3.3 3.3zm0-21.4a3.33 3.33 0 0 1-3.3 3.3 3.33 3.33 0 0 1-3.3-3.3 3.33 3.33 0 0 1 3.3-3.3c1.9 0 3.3 1.5 3.3 3.3zm0-21.4a3.33 3.33 0 0 1-3.3 3.3 3.33 3.33 0 0 1-3.3-3.3 3.33 3.33 0 0 1 3.3-3.3c1.9 0 3.3 1.5 3.3 3.3z"/></g><defs ><path id="B" d="M48.5 179.8a3.33 3.33 0 0 1-3.3 3.3 3.33 3.33 0 0 1-3.3-3.3 3.33 3.33 0 0 1 3.3-3.3 3.33 3.33 0 0 1 3.3 3.3z"/><path id="C" d="M72.1 179.8a3.33 3.33 0 0 1-3.3 3.3 3.33 3.33 0 0 1-3.3-3.3 3.33 3.33 0 0 1 3.3-3.3c1.9 0 3.3 1.5 3.3 3.3z"/></defs></svg>