<svg xmlns="http://www.w3.org/2000/svg" viewBox="0 0 337 213" xmlns:v="https://vecta.io/nano"><path d="M254.5 178.3c-1.6-46.1-39.6-83.1-86-83.1-46.5 0-84.4 37-86 83.1H22C23.6 98.8 88.7 34.7 168.5 34.7S313.4 98.8 315 178.2h-60.5z" fill="#ffa897"/><path d="M268.5 70.1c30.4 27.4 49.5 67 49.5 111.2h-66.5c0-24.5-10.6-46.5-27.5-61.8l44.5-49.4zm-100.2 77.6c0 1.5-.4 2.7-1.1 3.9-.7 1.1-1.7 2-3 2.7 1.5.7 2.6 1.7 3.5 2.9s1.3 2.7 1.3 4.3c0 2.7-.9 4.8-2.7 6.3s-4.3 2.3-7.4 2.3-5.6-.8-7.4-2.3c-1.8-1.6-2.7-3.7-2.7-6.3 0-1.7.4-3.1 1.3-4.3s2-2.2 3.4-2.9c-1.3-.7-2.3-1.6-3-2.7s-1.1-2.4-1.1-3.9c0-2.6.9-4.6 2.6-6.1s4-2.3 6.9-2.3 5.2.8 6.9 2.3c1.6 1.5 2.5 3.5 2.5 6.1zm-5.4 13.4c0-1.3-.4-2.3-1.1-3.1s-1.8-1.2-3.1-1.2-2.3.4-3 1.2c-.8.8-1.1 1.8-1.1 3.1s.4 2.3 1.1 3.1 1.8 1.2 3.1 1.2 2.3-.4 3-1.1c.8-.8 1.1-1.9 1.1-3.2zm-.6-13.1c0-1.2-.3-2.1-.9-2.8s-1.5-1.1-2.6-1.1-2 .3-2.6 1-.9 1.6-.9 2.8.3 2.2.9 2.9 1.5 1.1 2.6 1.1 2-.4 2.6-1.1.9-1.6.9-2.8zm11.5 7l1.7-15.3h16.8v5h-11.9l-.7 6.5c1.4-.8 2.9-1.1 4.5-1.1 2.9 0 5.1.9 6.7 2.7s2.4 4.3 2.4 7.4c0 1.9-.4 3.7-1.2 5.2s-2 2.7-3.5 3.6-3.3 1.3-5.4 1.3c-1.8 0-3.5-.4-5-1.1s-2.8-1.8-3.7-3.1-1.4-2.9-1.4-4.6h5.9c.1 1.2.6 2.2 1.3 2.9s1.7 1 2.9 1c1.3 0 2.4-.5 3.1-1.5s1.1-2.3 1.1-4.1c0-1.7-.4-3-1.3-3.9-.8-.9-2-1.4-3.6-1.4-1.4 0-2.6.4-3.4 1.1l-.6.5-4.7-1.1z" fill="#b9c1db"/><g fill="#fff"><path d="M168.5 37.7c38.3 0 74.4 14.9 101.5 42 25.7 25.7 40.4 59.4 41.9 95.5h-54.5c-3.1-46.3-41.8-83.1-88.9-83.1s-85.8 36.7-88.9 83.1H25.1c1.5-36.1 16.2-69.8 41.9-95.5 27.1-27 63.2-42 101.5-42m0-6C85.9 31.7 19 98.7 19 181.3h66.5c0-45.9 37.2-83.1 83.1-83.1s83.1 37.2 83.1 83.1H318c0-82.6-66.9-149.6-149.5-149.6h0z"/><path d="M320.5 183.8H249v-2.5c0-44.4-36.1-80.6-80.6-80.6s-80.6 36.1-80.6 80.6v2.5H16.5v-2.5c0-83.8 68.2-152 152-152s152 68.2 152 152v2.5zm-66.5-5h61.5c-1.3-79.9-66.8-144.5-147-144.5S22.8 98.8 21.5 178.8H83c1.3-46 39.2-83.1 85.5-83.1s84.2 37 85.5 83.1zm60.5-1H255l-.2-2.3c-3-45.3-41-80.7-86.4-80.7S85 130.3 82 175.5l-.2 2.3H22.5l.1-2.6C24.1 138.5 39.2 104 65.2 78c27.6-27.6 64.3-42.8 103.3-42.8S244.2 50.4 271.8 78c26 26 41.2 60.5 42.7 97.2v2.6zm-54.8-5h49.6c-2-34.4-16.6-66.7-41.1-91.2-26.6-26.6-62.1-41.3-99.7-41.3S95.4 54.9 68.8 81.5a140.79 140.79 0 0 0-41.1 91.2h49.6c4.3-46.8 43.9-83.1 91.2-83.1s86.9 36.4 91.2 83.2z"/></g><path d="M213.7 135.5c-.5 0-.9-.2-1.3-.5-.8-.7-.9-2-.2-2.8l11.9-13.8c.7-.8 2-.9 2.8-.2s.9 2 .2 2.8l-11.9 13.8c-.3.5-.9.7-1.5.7z" fill="#ffa897"/></svg>