<svg xmlns="http://www.w3.org/2000/svg" xmlns:xlink="http://www.w3.org/1999/xlink" viewBox="0 0 337 213" xmlns:v="https://vecta.io/nano"><path d="M139.6 121.9l-.3-.1-80.6-30.4.5-1.3 80.2 30.2 80.7-63.1 79.3 54.9-.8 1.2L220.2 59z" fill="#fd6880"/><g fill="#ffa897"><path d="M59.4 160.9l-.9-1.1 80.9-68.9 80.6 33.8 80.2-80.2 1 1-80.9 80.9-.4-.2-80.2-33.6z"/><circle cx="58.9" cy="160.4" r="5.4"/></g><g fill="#fd6880"><circle cx="58.9" cy="90.7" r="5.4"/><circle cx="139.5" cy="121.1" r="5.4"/><circle cx="220.1" cy="58.1" r="5.4"/><path d="M304.3 112.7c0 3-2.4 5.4-5.4 5.4s-5.4-2.4-5.4-5.4 2.4-5.4 5.4-5.4 5.4 2.4 5.4 5.4z"/></g><g fill="#ffa897"><circle cx="139.5" cy="91.8" r="5.4"/><circle cx="220.1" cy="125.6" r="5.4"/><path d="M304.3 45c0 3-2.4 5.4-5.4 5.4s-5.4-2.4-5.4-5.4 2.4-5.4 5.4-5.4 5.4 2.4 5.4 5.4z"/></g><g fill="#b9c1db"><path d="M307.3 180.4H29.6c-.6 0-1-.5-1-1V35.6c0-.6.5-1 1-1a1.08 1.08 0 0 1 1 1v142.8h276.6c.6 0 1 .5 1 1s-.4 1-.9 1z"/><use xlink:href="#B"/><use xlink:href="#B" x="23.7"/><use xlink:href="#B" x="47.3"/><use xlink:href="#C"/><use xlink:href="#B" x="94.6"/><use xlink:href="#B" x="118.2"/><use xlink:href="#B" x="141.9"/><use xlink:href="#B" x="165.5"/><use xlink:href="#C" x="118.2"/><path d="M263.3,179.4c0,1.8-1.5,3.3-3.3,3.3s-3.3-1.5-3.3-3.3c0-1.8,1.5-3.3,3.3-3.3S263.3,177.6,263.3,179.4z"/><use xlink:href="#C" x="165.5"/><use xlink:href="#B" x="260.1"/><use xlink:href="#B" x="-17.5" y="-17.2"/><path d="M33 140.7a3.33 3.33 0 0 1-3.3 3.3 3.33 3.33 0 0 1-3.3-3.3 3.33 3.33 0 0 1 3.3-3.3c1.8.1 3.3 1.5 3.3 3.3zm0-21.4a3.33 3.33 0 0 1-3.3 3.3 3.33 3.33 0 0 1-3.3-3.3 3.33 3.33 0 0 1 3.3-3.3 3.33 3.33 0 0 1 3.3 3.3zm0-21.4a3.33 3.33 0 0 1-3.3 3.3 3.33 3.33 0 0 1-3.3-3.3 3.33 3.33 0 0 1 3.3-3.3 3.33 3.33 0 0 1 3.3 3.3zm0-21.5a3.33 3.33 0 0 1-3.3 3.3 3.33 3.33 0 0 1-3.3-3.3 3.33 3.33 0 0 1 3.3-3.3c1.8.1 3.3 1.5 3.3 3.3zM33 55a3.33 3.33 0 0 1-3.3 3.3 3.33 3.33 0 0 1-3.3-3.3 3.33 3.33 0 0 1 3.3-3.3A3.33 3.33 0 0 1 33 55zm0-21.4a3.33 3.33 0 0 1-3.3 3.3 3.33 3.33 0 0 1-3.3-3.3 3.33 3.33 0 0 1 3.3-3.3 3.33 3.33 0 0 1 3.3 3.3z"/></g><defs ><path id="B" d="M50.5 179.4a3.33 3.33 0 0 1-3.3 3.3 3.33 3.33 0 0 1-3.3-3.3 3.33 3.33 0 0 1 3.3-3.3 3.33 3.33 0 0 1 3.3 3.3z"/><path id="C" d="M121.4 179.4a3.33 3.33 0 0 1-3.3 3.3 3.33 3.33 0 0 1-3.3-3.3 3.33 3.33 0 0 1 3.3-3.3c1.9 0 3.3 1.5 3.3 3.3z"/></defs></svg>