<svg xmlns="http://www.w3.org/2000/svg" xmlns:xlink="http://www.w3.org/1999/xlink" viewBox="0 0 337 213" xmlns:v="https://vecta.io/nano"><path d="M37.3 119.6h15.8v50.9H37.3zM61 102h15.8v68.5H61zm23.6-22.3h15.8v90.8H84.6zm23.6-16.6H124v107.4h-15.8zM131.6 89h15.8v81.5h-15.8zm23.6-15.3H171v96.8h-15.8zm23.7 6h15.8v90.8h-15.8zm23.6 17.7h15.8v73.1h-15.8zm23.3 0h15.8v73.1h-15.8zm23.7-23.7h15.8v96.8h-15.8zm23.6 23.7h15.8v73.1h-15.8zm23.7-11.6h15.8v84.7h-15.8z" fill="#ffa897"/><g fill="#b9c1db"><path d="M305.2 180.8H27.6c-.6 0-1-.5-1-1V36c0-.6.5-1 1-1a1.08 1.08 0 0 1 1 1v142.8h276.6c.6 0 1 .5 1 1s-.4 1-1 1z"/><use xlink:href="#B"/><use xlink:href="#C"/><use xlink:href="#B" x="47.3"/><use xlink:href="#B" x="70.9"/><use xlink:href="#C" x="70.9"/><use xlink:href="#B" x="118.2"/><use xlink:href="#C" x="118.2"/><use xlink:href="#B" x="165.5"/><use xlink:href="#B" x="189.1"/><path d="M261.2,179.8c0,1.8-1.5,3.3-3.3,3.3s-3.3-1.5-3.3-3.3c0-1.8,1.5-3.3,3.3-3.3S261.2,178,261.2,179.8z"/><use xlink:href="#B" x="236.4"/><path d="M308.5 179.8a3.33 3.33 0 0 1-3.3 3.3 3.33 3.33 0 0 1-3.3-3.3 3.33 3.33 0 0 1 3.3-3.3 3.33 3.33 0 0 1 3.3 3.3zM31 161.8a3.33 3.33 0 0 1-3.3 3.3 3.33 3.33 0 0 1-3.3-3.3 3.33 3.33 0 0 1 3.3-3.3c1.9 0 3.3 1.4 3.3 3.3zm0-21.5a3.33 3.33 0 0 1-3.3 3.3 3.33 3.33 0 0 1-3.3-3.3 3.33 3.33 0 0 1 3.3-3.3c1.9 0 3.3 1.5 3.3 3.3z"/><use xlink:href="#C" x="-41.1" y="-60.9"/><path d="M31 97.5a3.33 3.33 0 0 1-3.3 3.3 3.33 3.33 0 0 1-3.3-3.3 3.33 3.33 0 0 1 3.3-3.3c1.9 0 3.3 1.5 3.3 3.3zM31 76a3.33 3.33 0 0 1-3.3 3.3 3.33 3.33 0 0 1-3.3-3.3 3.33 3.33 0 0 1 3.3-3.3c1.9.1 3.3 1.5 3.3 3.3zm0-21.4a3.33 3.33 0 0 1-3.3 3.3 3.33 3.33 0 0 1-3.3-3.3 3.33 3.33 0 0 1 3.3-3.3c1.9 0 3.3 1.5 3.3 3.3zm0-21.4a3.33 3.33 0 0 1-3.3 3.3 3.33 3.33 0 0 1-3.3-3.3 3.33 3.33 0 0 1 3.3-3.3c1.9 0 3.3 1.5 3.3 3.3z"/></g><g fill="#ff6a84"><path d="M59.4 160.9l-.9-1.1 80.9-68.9 80.6 33.8 80.2-80.2 1 1-80.9 80.9-.4-.2-80.2-33.6z"/><circle cx="58.9" cy="160.4" r="5.4"/><circle cx="139.5" cy="91.8" r="5.4"/><circle cx="220.1" cy="125.6" r="5.4"/><path d="M304.3 45c0 3-2.4 5.4-5.4 5.4s-5.4-2.4-5.4-5.4 2.4-5.4 5.4-5.4 5.4 2.4 5.4 5.4z"/></g><defs ><path id="B" d="M48.5 179.8a3.33 3.33 0 0 1-3.3 3.3 3.33 3.33 0 0 1-3.3-3.3 3.33 3.33 0 0 1 3.3-3.3 3.33 3.33 0 0 1 3.3 3.3z"/><path id="C" d="M72.1 179.8a3.33 3.33 0 0 1-3.3 3.3 3.33 3.33 0 0 1-3.3-3.3 3.33 3.33 0 0 1 3.3-3.3c1.9 0 3.3 1.5 3.3 3.3z"/></defs></svg>