<svg xmlns="http://www.w3.org/2000/svg" viewBox="0 0 337 213" xmlns:v="https://vecta.io/nano"><path d="M35.4 190.2c-4.6 0-8.4-3.8-8.4-8.4V31.2c0-4.6 3.8-8.4 8.4-8.4h266.2c4.6 0 8.4 3.8 8.4 8.4v150.6c0 4.6-3.8 8.4-8.4 8.4H35.4z" fill="#fff"/><path d="M301.6 23.8c4.1 0 7.4 3.3 7.4 7.4v150.6c0 4.1-3.3 7.4-7.4 7.4H35.4c-4.1 0-7.4-3.3-7.4-7.4V31.2c0-4.1 3.3-7.4 7.4-7.4h266.2m0-2H35.4a9.39 9.39 0 0 0-9.4 9.4v150.6a9.39 9.39 0 0 0 9.4 9.4h266.2a9.39 9.39 0 0 0 9.4-9.4V31.2a9.39 9.39 0 0 0-9.4-9.4h0z" fill="#b9c1db"/><path d="M26 181.8V31.2a9.39 9.39 0 0 1 9.4-9.4h18.8v169.4H35.4a9.39 9.39 0 0 1-9.4-9.4z" fill="#6988ff"/><path d="M130.1 140.6c-.7-1.3-1.1-2.8-1.4-4.8-3.4 3.8-7.9 5.7-13.4 5.7-5.2 0-9.5-1.5-12.9-4.5s-5.1-6.8-5.1-11.4c0-5.6 2.1-9.9 6.3-12.9s10.2-4.5 18.1-4.6h6.5v-3c0-2.5-.6-4.4-1.9-5.9s-3.2-2.2-6-2.2c-2.4 0-4.3.6-5.6 1.7-1.4 1.1-2 2.7-2 4.7H98.4c0-3.1.9-5.9 2.8-8.5s4.6-4.7 8-6.2c3.5-1.5 7.4-2.2 11.7-2.2 6.5 0 11.7 1.7 15.6 4.9 3.8 3.3 5.8 7.9 5.8 13.8v23c0 5 .7 8.8 2.1 11.4v.8h-14.3zm-11.7-9.8c2.1 0 4-.5 5.8-1.4s3.1-2.2 3.9-3.7v-9.1h-5.3c-7.1 0-10.9 2.5-11.3 7.4l-.1.8c0 1.8.6 3.2 1.9 4.4 1.2 1 2.9 1.6 5.1 1.6zm82.6-16.2c0 8.5-1.8 15.1-5.4 19.9s-8.7 7.1-15.2 7.1c-5.8 0-10.3-2.2-13.8-6.6l-.6 5.6h-12.7V65.3h14.2v27c3.3-3.8 7.6-5.7 12.9-5.7 6.5 0 11.5 2.4 15.2 7.1 3.7 4.8 5.5 11.5 5.5 20.1-.1 0-.1.8-.1.8zm-14.2-1c0-5.4-.9-9.3-2.6-11.7-1.7-2.5-4.2-3.7-7.6-3.7-4.5 0-7.6 1.9-9.3 5.5v20.9c1.7 3.7 4.9 5.6 9.4 5.6 4.6 0 7.6-2.3 9-6.8.8-2.1 1.1-5.4 1.1-9.8zm45 16.6c2.6 0 4.7-.7 6.4-2.2 1.6-1.4 2.5-3.3 2.6-5.7H254c0 3.6-1 6.9-2.9 9.9s-4.6 5.3-7.9 7-7.1 2.5-11.1 2.5c-7.6 0-13.6-2.4-17.9-7.2-4.4-4.8-6.6-11.5-6.6-20v-.9c0-8.2 2.2-14.7 6.5-19.6s10.3-7.3 17.9-7.3c6.6 0 12 1.9 16 5.7s6 8.8 6.1 15.1h-13.3c-.1-2.8-.9-5-2.6-6.7-1.6-1.7-3.8-2.6-6.5-2.6-3.3 0-5.8 1.2-7.5 3.6s-2.5 6.3-2.5 11.7v1.5c0 5.5.8 9.4 2.5 11.8 1.7 2.2 4.2 3.4 7.6 3.4z" fill-rule="evenodd" fill="#b9c1db"/></svg>