<svg xmlns="http://www.w3.org/2000/svg" xmlns:xlink="http://www.w3.org/1999/xlink" viewBox="0 0 337 213" xmlns:v="https://vecta.io/nano"><path d="M27.1,96.1h282.8v47.8H27.1V96.1z" fill="#b9c1db"/><path d="M27.1 143.9h282.8v38.2c0 5.3-4.2 9.6-9.4 9.6h-264c-5.2 0-9.4-4.3-9.4-9.6v-38.2zm0-95.6h282.8v47.8H27.1V48.3z" fill="#fff"/><g fill="#414141"><use xlink:href="#B" opacity=".4"/><use xlink:href="#B" x="-53.3" opacity=".4"/><use xlink:href="#C" opacity=".4"/><use xlink:href="#B" y="-47.8" opacity=".4"/><use xlink:href="#B" x="-53.3" y="-47.8" opacity=".4"/><use xlink:href="#C" y="-47.8" opacity=".4"/><use xlink:href="#B" y="-95.6" opacity=".4"/><use xlink:href="#B" x="-53.3" y="-95.6" opacity=".4"/><use xlink:href="#C" y="-95.6" opacity=".4"/></g><path d="M308 50.2v45.9 47.8 38.2c0 4.2-3.4 7.7-7.5 7.7h-264c-4.2 0-7.5-3.5-7.5-7.7v-38.2-47.8-45.9h279m1.9-1.9H27.1v47.8 47.8 38.2c0 5.3 4.2 9.6 9.4 9.6h264c5.2 0 9.4-4.3 9.4-9.6v-38.2-47.8-47.8h0z" fill="#b9c1db"/><path d="M36.5 21.3h264c5.2 0 9.4 4.3 9.4 9.6V50H27.1V30.9c0-5.3 4.2-9.6 9.4-9.6z" fill="#6988ff"/><g fill="#fd6880"><path d="M215.9 86.7l-3.1-17-3.1 3.9c-.2.3-.6.3-.9.1s-.3-.6-.1-.9l4.9-6.2 2.8 15.4 6.1-15.1 4.7 8 5.6-5.7 2.8 8 1.7-4.1 5.4 5 4.8-13 4.7 14.1 9.3-11.2 4.3 7.6 7.6-15.3 5.5 17.2 3.3-5.3 5.7 10.5 4.6-17.2 4.2 11.9c.1.3-.1.7-.4.9-.3.1-.7-.1-.9-.4l-2.8-7.9-4.3 16.3-6.2-11.4-3.6 5.8-5.4-16.8-7.3 14.6-4.6-8.1-9.6 11.6-4.2-12.8-4.2 11.3-5.5-5.1-2.3 5.6-3.2-9.3-5.3 5.4-4.2-7.2-6.8 16.8zm16 92.8l-5.5-17.2-3.3 5.3-5.7-10.5-4.6 17.2-4.2-11.9c-.1-.3.1-.7.4-.9.4-.1.7.1.9.4l2.8 7.9 4.3-16.3 6.2 11.4 3.6-5.8 5.4 16.8 7.3-14.6 4.6 8.1 9.6-11.6 4.2 12.8 4.2-11.3 5.5 5.1 2.3-5.6 3.2 9.3 5.3-5.4 4.2 7.2 6.8-16.9 3.1 17 3.1-3.9c.2-.3.6-.3.9-.1s.3.6.1.9l-4.9 6.2-2.8-15.4-6.1 15.1-4.7-8-5.6 5.7-2.8-8-1.7 4.1-5.4-5-4.8 13-4.7-14.1-9.3 11.2-4.3-7.6-7.6 15.4z"/><path d="M273.3 134.3l-7.6-15.3-4.3 7.6-9.3-11.2-4.7 14.1-4.8-13-5.4 5-1.7-4.1-2.8 8-5.6-5.7-4.7 8-6.1-15.1-2.8 15.4-4.9-6.2c-.2-.3-.2-.7.1-.9s.7-.2.9.1l3.1 3.9 3.1-17 6.8 16.9 4.2-7.2 5.3 5.4 3.2-9.3 2.3 5.6 5.5-5.1 4.2 11.3 4.2-12.8 9.6 11.6 4.6-8.1 7.3 14.6 5.4-16.8 3.6 5.8 6.2-11.4 4.3 16.3 2.8-7.9c.1-.3.5-.5.9-.4.3.1.5.5.4.9l-4.2 11.9-4.6-17.2-5.7 10.5-3.3-5.3-5.5 17.1z"/></g><defs ><path id="B" d="M183.7 169.2h-28.2c-.8 0-1.4-.6-1.4-1.4s.6-1.4 1.4-1.4h28.2c.8 0 1.4.6 1.4 1.4s-.7 1.4-1.4 1.4z"/><path id="C" d="M77.1 169.2H48.9c-.8 0-1.4-.6-1.4-1.4s.6-1.4 1.4-1.4h28.2c.8 0 1.4.6 1.4 1.4s-.6 1.4-1.4 1.4z"/></defs></svg>