<svg xmlns="http://www.w3.org/2000/svg" xmlns:xlink="http://www.w3.org/1999/xlink" viewBox="0 0 337 213" xmlns:v="https://vecta.io/nano"><g fill="#b9c1db"><path d="M305.2 180.8H27.6c-.6 0-1-.5-1-1V36c0-.6.5-1 1-1a1.08 1.08 0 0 1 1 1v142.8h276.6c.6 0 1 .5 1 1s-.4 1-1 1z"/><use xlink:href="#B"/><use xlink:href="#C"/><use xlink:href="#B" x="47.3"/><use xlink:href="#B" x="70.9"/><use xlink:href="#C" x="70.9"/><use xlink:href="#B" x="118.2"/><use xlink:href="#C" x="118.2"/><use xlink:href="#B" x="165.5"/><use xlink:href="#B" x="189.1"/><path d="M261.2,179.8c0,1.8-1.5,3.3-3.3,3.3s-3.3-1.5-3.3-3.3c0-1.8,1.5-3.3,3.3-3.3S261.2,178,261.2,179.8z"/><use xlink:href="#B" x="236.4"/><path d="M308.5 179.8a3.33 3.33 0 0 1-3.3 3.3 3.33 3.33 0 0 1-3.3-3.3 3.33 3.33 0 0 1 3.3-3.3 3.33 3.33 0 0 1 3.3 3.3zM31 161.8a3.33 3.33 0 0 1-3.3 3.3 3.33 3.33 0 0 1-3.3-3.3 3.33 3.33 0 0 1 3.3-3.3c1.9 0 3.3 1.4 3.3 3.3zm0-21.5a3.33 3.33 0 0 1-3.3 3.3 3.33 3.33 0 0 1-3.3-3.3 3.33 3.33 0 0 1 3.3-3.3c1.9 0 3.3 1.5 3.3 3.3z"/><use xlink:href="#C" x="-41.1" y="-60.9"/><path d="M31 97.5a3.33 3.33 0 0 1-3.3 3.3 3.33 3.33 0 0 1-3.3-3.3 3.33 3.33 0 0 1 3.3-3.3c1.9 0 3.3 1.5 3.3 3.3zM31 76a3.33 3.33 0 0 1-3.3 3.3 3.33 3.33 0 0 1-3.3-3.3 3.33 3.33 0 0 1 3.3-3.3c1.9.1 3.3 1.5 3.3 3.3zm0-21.4a3.33 3.33 0 0 1-3.3 3.3 3.33 3.33 0 0 1-3.3-3.3 3.33 3.33 0 0 1 3.3-3.3c1.9 0 3.3 1.5 3.3 3.3zm0-21.4a3.33 3.33 0 0 1-3.3 3.3 3.33 3.33 0 0 1-3.3-3.3 3.33 3.33 0 0 1 3.3-3.3c1.9 0 3.3 1.5 3.3 3.3z"/></g><g fill="#6988ff"><path d="M258.1 130.7c-6.5 0-9.5-10.7-12.7-22.1-2.9-10.4-5.9-21.1-11.3-21.1-5.6 0-8.5 4.4-11.4 9-3 4.7-6.2 9.6-12.6 9.6s-9.5-4.8-12.6-9.5c-3-4.6-5.8-8.9-11.4-8.9-5.7 0-8.5 3-11.5 6.2-3.1 3.3-6.2 6.7-12.5 6.7-6.5 0-9.6-8-12.6-15.7-2.9-7.3-5.8-14.8-11.4-14.8-5.5 0-8.5 11.3-11.3 22.2-3.2 12-6.1 23.3-12.7 23.3s-9.5-16.3-12.7-33.5c-2.8-15.2-5.9-32.4-11.3-32.4-5.5 0-8.5 9.8-11.4 19.2-3.2 10.4-6.1 20.2-12.7 20.2-6.4 0-9.5-5-12.6-9.8-3-4.7-5.8-9.2-11.4-9.2a.68.68 0 1 1 0-1.4c6.4 0 9.5 5 12.6 9.8 3 4.7 5.8 9.2 11.4 9.2 5.5 0 8.5-9.8 11.4-19.2 3.2-10.4 6.1-20.2 12.6-20.2 6.6 0 9.5 16.3 12.7 33.5 2.8 15.2 5.9 32.4 11.3 32.4 5.5 0 8.5-11.3 11.3-22.2 3.2-12 6.1-23.3 12.7-23.3 6.5 0 9.6 8 12.6 15.7 2.9 7.3 5.8 14.8 11.4 14.8 5.7 0 8.5-3 11.5-6.2 3-3.3 6.2-6.7 12.5-6.7 6.4 0 9.5 4.8 12.6 9.5 3 4.6 5.8 8.9 11.4 8.9s8.4-4.4 11.4-9c3-4.7 6.2-9.7 12.6-9.7 6.5 0 9.5 10.7 12.7 22.1 2.9 10.4 5.9 21.1 11.3 21.1s8.6-20.5 11.3-38.6c3.7-24 6.5-39.8 12.7-39.8 6.5 0 9.6 9.6 12.6 19 2.9 8.9 5.9 18 11.4 18a.68.68 0 1 1 0 1.4c-6.5 0-9.6-9.6-12.7-19-2.9-8.9-5.8-18-11.4-18-5.4 0-8.6 20.5-11.3 38.6-3.5 24.1-6.4 39.9-12.5 39.9z"/><path d="M95.3 49c0 3-2.4 5.4-5.4 5.4S84.5 52 84.5 49s2.4-5.4 5.4-5.4 5.4 2.4 5.4 5.4z"/><use xlink:href="#D"/><path d="M119.1 114.7c0 3-2.4 5.4-5.4 5.4s-5.4-2.4-5.4-5.4 2.4-5.4 5.4-5.4c2.9 0 5.4 2.4 5.4 5.4z"/><use xlink:href="#E"/><path d="M168.1 99.6c0 3-2.4 5.4-5.4 5.4s-5.4-2.4-5.4-5.4 2.4-5.4 5.4-5.4c2.9-.1 5.4 2.4 5.4 5.4z"/><use xlink:href="#D" x="121.3" y="0.2"/><use xlink:href="#E" x="71.5" y="35"/><use xlink:href="#E" x="96.9" y="16.7"/><use xlink:href="#D" x="192.7" y="41.5"/><use xlink:href="#E" x="145" y="-17.9"/></g><defs ><path id="B" d="M48.5 179.8a3.33 3.33 0 0 1-3.3 3.3 3.33 3.33 0 0 1-3.3-3.3 3.33 3.33 0 0 1 3.3-3.3 3.33 3.33 0 0 1 3.3 3.3z"/><path id="C" d="M72.1 179.8a3.33 3.33 0 0 1-3.3 3.3 3.33 3.33 0 0 1-3.3-3.3 3.33 3.33 0 0 1 3.3-3.3c1.9 0 3.3 1.5 3.3 3.3z"/><path id="D" d="M70.2 87.9c0 3-2.4 5.4-5.4 5.4s-5.4-2.4-5.4-5.4 2.4-5.4 5.4-5.4 5.4 2.4 5.4 5.4z"/><path id="E" d="M143.1 70c0 3-2.4 5.4-5.4 5.4s-5.4-2.4-5.4-5.4 2.4-5.4 5.4-5.4c3-.1 5.4 2.4 5.4 5.4z"/></defs></svg>