<svg xmlns="http://www.w3.org/2000/svg" viewBox="0 0 337 213" xmlns:v="https://vecta.io/nano"><path d="M35.4 190.2c-4.6 0-8.4-3.8-8.4-8.4V31.2c0-4.6 3.8-8.4 8.4-8.4h266.2c4.6 0 8.4 3.8 8.4 8.4v150.6c0 4.6-3.8 8.4-8.4 8.4H35.4z" fill="#fff"/><path d="M301.6 23.8c4.1 0 7.4 3.3 7.4 7.4v150.6c0 4.1-3.3 7.4-7.4 7.4H35.4c-4.1 0-7.4-3.3-7.4-7.4V31.2c0-4.1 3.3-7.4 7.4-7.4h266.2m0-2H35.4a9.39 9.39 0 0 0-9.4 9.4v150.6a9.39 9.39 0 0 0 9.4 9.4h266.2a9.39 9.39 0 0 0 9.4-9.4V31.2a9.39 9.39 0 0 0-9.4-9.4h0z" fill="#b9c1db"/><path d="M26 181.8V31.2a9.39 9.39 0 0 1 9.4-9.4h18.8v169.4H35.4a9.39 9.39 0 0 1-9.4-9.4z" fill="#6988ff"/><path d="M158.9,163.3l37.8-113.5" fill="#fff"/><path d="M156.069 162.311l37.829-113.465 5.692 1.898-37.829 113.465z" fill="#b9c1db"/><path d="M209.4 134.7c-.8 0-1.5-.3-2.1-.9-1.2-1.2-1.2-3.1 0-4.2l23.1-23.1-23.1-23.1c-1.2-1.2-1.2-3.1 0-4.2 1.2-1.2 3.1-1.2 4.2 0l27.3 27.3-27.3 27.3c-.6.6-1.4.9-2.1.9zm-63.1 0c-.8 0-1.5-.3-2.1-.9l-27.3-27.3 27.3-27.3c1.2-1.2 3.1-1.2 4.2 0 1.2 1.2 1.2 3.1 0 4.2l-23.1 23.1 23.1 23.1c1.2 1.2 1.2 3.1 0 4.2-.6.6-1.3.9-2.1.9z" fill="#fd6880"/></svg>