<svg xmlns="http://www.w3.org/2000/svg" xmlns:xlink="http://www.w3.org/1999/xlink" viewBox="0 0 337 213" xmlns:v="https://vecta.io/nano"><g fill="#b9c1db"><path d="M305.2 180.8H27.6c-.6 0-1-.5-1-1V36c0-.6.5-1 1-1a1.08 1.08 0 0 1 1 1v142.8h276.6c.6 0 1 .5 1 1s-.4 1-1 1z"/><use xlink:href="#B"/><use xlink:href="#C"/><use xlink:href="#B" x="47.3"/><use xlink:href="#B" x="70.9"/><use xlink:href="#C" x="70.9"/><use xlink:href="#B" x="118.2"/><use xlink:href="#C" x="118.2"/><use xlink:href="#B" x="165.5"/><use xlink:href="#B" x="189.1"/><path d="M261.2,179.8c0,1.8-1.5,3.3-3.3,3.3s-3.3-1.5-3.3-3.3c0-1.8,1.5-3.3,3.3-3.3S261.2,178,261.2,179.8z"/><use xlink:href="#B" x="236.4"/><path d="M308.5 179.8a3.33 3.33 0 0 1-3.3 3.3 3.33 3.33 0 0 1-3.3-3.3 3.33 3.33 0 0 1 3.3-3.3 3.33 3.33 0 0 1 3.3 3.3zM31 161.8a3.33 3.33 0 0 1-3.3 3.3 3.33 3.33 0 0 1-3.3-3.3 3.33 3.33 0 0 1 3.3-3.3c1.9 0 3.3 1.4 3.3 3.3zm0-21.5a3.33 3.33 0 0 1-3.3 3.3 3.33 3.33 0 0 1-3.3-3.3 3.33 3.33 0 0 1 3.3-3.3c1.9 0 3.3 1.5 3.3 3.3z"/><use xlink:href="#C" x="-41.1" y="-60.9"/><path d="M31 97.5a3.33 3.33 0 0 1-3.3 3.3 3.33 3.33 0 0 1-3.3-3.3 3.33 3.33 0 0 1 3.3-3.3c1.9 0 3.3 1.5 3.3 3.3zM31 76a3.33 3.33 0 0 1-3.3 3.3 3.33 3.33 0 0 1-3.3-3.3 3.33 3.33 0 0 1 3.3-3.3c1.9.1 3.3 1.5 3.3 3.3zm0-21.4a3.33 3.33 0 0 1-3.3 3.3 3.33 3.33 0 0 1-3.3-3.3 3.33 3.33 0 0 1 3.3-3.3c1.9 0 3.3 1.5 3.3 3.3zm0-21.4a3.33 3.33 0 0 1-3.3 3.3 3.33 3.33 0 0 1-3.3-3.3 3.33 3.33 0 0 1 3.3-3.3c1.9 0 3.3 1.5 3.3 3.3z"/></g><g fill="#ffa897"><use xlink:href="#D"/><path d="M39.8 145.4v-21.5a2.69 2.69 0 0 1 2.7-2.7h8.1a2.69 2.69 0 0 1 2.7 2.7v21.5a2.69 2.69 0 0 1-2.7 2.7h-8.1a2.69 2.69 0 0 1-2.7-2.7z"/><use xlink:href="#D" x="54.6"/><path d="M94.3 137.1v-13.2a2.69 2.69 0 0 1 2.7-2.7h8.1a2.69 2.69 0 0 1 2.7 2.7v13.2a2.69 2.69 0 0 1-2.7 2.7H97a2.69 2.69 0 0 1-2.7-2.7zm128.6-6.9a.94.94 0 0 1-1-1V80.9a1 1 0 1 1 2 0v48.4c0 .5-.4.9-1 .9z"/><path d="M216.2 104.8V91.6a2.69 2.69 0 0 1 2.7-2.7h8.1a2.69 2.69 0 0 1 2.7 2.7v13.2a2.69 2.69 0 0 1-2.7 2.7h-8.1a2.69 2.69 0 0 1-2.7-2.7zm42.2 44.3a.94.94 0 0 1-1-1V99.8a1 1 0 1 1 2 0v48.4c0 .5-.4.9-1 .9z"/><use xlink:href="#E"/><path d="M295.6 137.1a.94.94 0 0 1-1-1V87.7a.94.94 0 1 1 2 0v48.4a1.08 1.08 0 0 1-1 1z"/><use xlink:href="#E" x="37.2" y="-12.1"/><path d="M241.1 130.2a.94.94 0 0 1-1-1V80.9a.94.94 0 1 1 2 0v48.4c0 .5-.4.9-1 .9z"/><path d="M234.4 104.8v-5.7a2.69 2.69 0 0 1 2.7-2.7h8.1a2.69 2.69 0 0 1 2.7 2.7v5.7a2.69 2.69 0 0 1-2.7 2.7h-8.1a2.69 2.69 0 0 1-2.7-2.7zm-62.8-19.3a.94.94 0 0 1-1-1V36.1a1 1 0 1 1 2 0v48.4a1.08 1.08 0 0 1-1 1z"/><path d="M164.9 60V46.8a2.69 2.69 0 0 1 2.7-2.7h8.1a2.69 2.69 0 0 1 2.7 2.7V60a2.69 2.69 0 0 1-2.7 2.7h-8.1a2.69 2.69 0 0 1-2.7-2.7zm23.5 42.1a.94.94 0 0 1-1-1V52.7a1 1 0 1 1 2 0v48.4a1.08 1.08 0 0 1-1 1z"/><path d="M181.6 83.8V63.4a2.69 2.69 0 0 1 2.7-2.7h8.1a2.69 2.69 0 0 1 2.7 2.7v20.4a2.69 2.69 0 0 1-2.7 2.7h-8.1c-1.4 0-2.7-1.2-2.7-2.7zm-63 51.3a.94.94 0 0 1-1-1V85.8a1 1 0 1 1 2 0v48.4c0 .5-.4.9-1 .9z"/><path d="M125.4 94.9v28.5a2.69 2.69 0 0 1-2.7 2.7h-8.1a2.69 2.69 0 0 1-2.7-2.7V94.9a2.69 2.69 0 0 1 2.7-2.7h8.1a2.69 2.69 0 0 1 2.7 2.7z"/></g><g fill="#ff6a84"><use xlink:href="#D" x="18.5"/><path d="M58.3 150.8V140a2.69 2.69 0 0 1 2.7-2.7h8a2.69 2.69 0 0 1 2.7 2.7v10.8a2.69 2.69 0 0 1-2.7 2.7h-8.1c-1.4-.1-2.6-1.3-2.6-2.7zm23.6-3.9a.94.94 0 0 1-1-1V97.5a.94.94 0 0 1 1-1 .94.94 0 0 1 1 1v48.4c0 .5-.4 1-1 1z"/><path d="M88.6 108.2v17.5a2.69 2.69 0 0 1-2.7 2.7h-8.1a2.69 2.69 0 0 1-2.7-2.7v-17.5a2.69 2.69 0 0 1 2.7-2.7h8.1c1.5 0 2.7 1.3 2.7 2.7zm47.9 8.5a.94.94 0 0 1-1-1V67.3a1 1 0 1 1 2 0v48.4c0 .6-.5 1-1 1z"/><use xlink:href="#F"/><path d="M205.6 116.7a.94.94 0 0 1-1-1V67.3a.94.94 0 1 1 2 0v48.4c0 .6-.5 1-1 1z"/><use xlink:href="#F" x="69.1"/><path d="M276.7 163.8a.94.94 0 0 1-1-1v-48.4a.94.94 0 1 1 2 0v48.4a.94.94 0 0 1-1 1z"/><path d="M283.5 125.2v17.5a2.69 2.69 0 0 1-2.7 2.7h-8.1a2.69 2.69 0 0 1-2.7-2.7v-17.5a2.69 2.69 0 0 1 2.7-2.7h8.1a2.69 2.69 0 0 1 2.7 2.7zM154.2 99.5a.94.94 0 0 1-1-1V50.1a1 1 0 1 1 2 0v48.4c0 .5-.4 1-1 1z"/><path d="M161 60.8v17.5a2.69 2.69 0 0 1-2.7 2.7h-8.1a2.69 2.69 0 0 1-2.7-2.7V60.8a2.69 2.69 0 0 1 2.7-2.7h8.1a2.69 2.69 0 0 1 2.7 2.7z"/></g><defs ><path id="B" d="M48.5 179.8a3.33 3.33 0 0 1-3.3 3.3 3.33 3.33 0 0 1-3.3-3.3 3.33 3.33 0 0 1 3.3-3.3 3.33 3.33 0 0 1 3.3 3.3z"/><path id="C" d="M72.1 179.8a3.33 3.33 0 0 1-3.3 3.3 3.33 3.33 0 0 1-3.3-3.3 3.33 3.33 0 0 1 3.3-3.3c1.9 0 3.3 1.5 3.3 3.3z"/><path id="D" d="M46.5 162.5a.94.94 0 0 1-1-1v-48.4a.94.94 0 0 1 1-1 .94.94 0 0 1 1 1v48.4c0 .6-.5 1-1 1z"/><path id="E" d="M265.1 124.2v13.2a2.69 2.69 0 0 1-2.7 2.7h-8.1a2.69 2.69 0 0 1-2.7-2.7v-13.2a2.69 2.69 0 0 1 2.7-2.7h8.1a2.69 2.69 0 0 1 2.7 2.7z"/><path id="F" d="M143.2 78.1v17.5a2.69 2.69 0 0 1-2.7 2.7h-8.1a2.69 2.69 0 0 1-2.7-2.7V78.1a2.69 2.69 0 0 1 2.7-2.7h8.1a2.69 2.69 0 0 1 2.7 2.7z"/></defs></svg>