<svg xmlns="http://www.w3.org/2000/svg" viewBox="0 0 337 213" xmlns:v="https://vecta.io/nano"><path d="M163.3 191.9c-44.7 0-81-36.3-81-81s36.3-81 81-81 81 36.3 81 81-36.3 81-81 81zm0-159c-43 0-78 35-78 78s35 78 78 78 78-35 78-78-35-78-78-78zm0 123.7c-25.2 0-45.7-20.5-45.7-45.7s20.5-45.7 45.7-45.7S209 85.7 209 110.9s-20.5 45.7-45.7 45.7zm0-88.3c-23.5 0-42.7 19.1-42.7 42.7s19.1 42.7 42.7 42.7S206 134.6 206 111s-19.2-42.7-42.7-42.7zm0 52.9c-5.7 0-10.3-4.6-10.3-10.3s4.6-10.3 10.3-10.3 10.3 4.6 10.3 10.3c.1 5.7-4.6 10.3-10.3 10.3zm0-17.6c-4 0-7.3 3.3-7.3 7.3s3.3 7.3 7.3 7.3 7.3-3.3 7.3-7.3c.1-4-3.2-7.3-7.3-7.3z" fill="#b9c1db"/><path d="M199.2 182.7l-108-27L127.1 84l18-54.1 99 63-44.9 89.8zM94.1 154.4l104 26 43.4-86.8L146.2 33l-17.3 51.9-34.8 69.5zm33.9-70h0 0z" fill="#6988ff"/><path d="M133.9 31.4a13.19 13.19 0 1 1 26.4 0 13.19 13.19 0 0 1-13.2 13.2c-7.3.1-13.2-5.9-13.2-13.2zm-53 120.9a13.19 13.19 0 1 1 26.4 0 13.19 13.19 0 0 1-13.2 13.2c-7.2 0-13.2-5.9-13.2-13.2zm103.9 29.3a13.19 13.19 0 1 1 26.4 0 13.19 13.19 0 1 1-26.4 0zm44.8-88.3a13.19 13.19 0 1 1 26.4 0 13.19 13.19 0 1 1-26.4 0zm-117.7-5.1a13.19 13.19 0 1 1 26.4 0 13.19 13.19 0 0 1-13.2 13.2c-7.2 0-13.2-5.9-13.2-13.2z" fill="#ff6a84"/></svg>