<svg xmlns="http://www.w3.org/2000/svg" viewBox="0 0 337 213" xmlns:v="https://vecta.io/nano"><path d="M49.2 21.8h238.7c4.7 0 8.4 4.2 8.4 9.4v150.6c0 5.2-3.8 9.4-8.4 9.4H49.2c-4.7 0-8.4-4.2-8.4-9.4V31.2c-.1-5.2 3.7-9.4 8.4-9.4z" fill="#fff"/><path d="M163.5 149.6l-26.4-31.3c-3.4-4-11.9-4-15.3 0l-78.2 62.5c-3.4 4 .9 9.1 7.7 9.1h78.2 32.7 6.9v-33.8l-5.6-6.5zm130.8 27.7l-48-86.9c-4.7-5.6-16.6-5.6-21.3 0l-36.7 43.5-19 22.5h0l-.1-.1v33.8h.1 13.1 53.3H285c9.5-.2 14-7.2 9.3-12.8z" fill="#b9c1db"/><g fill="#ffa897"><path d="M90.4 69.3c0 10.1 8.2 18.3 18.3 18.3V51c-10.1 0-18.3 8.2-18.3 18.3z"/><path d="M108.7 51v36.6c10.1 0 18.3-8.2 18.3-18.3S118.8 51 108.7 51z"/></g><path d="M287.8 23.7c3.6 0 6.5 3.4 6.5 7.5v150.6c0 4.1-2.9 7.5-6.5 7.5H49.2c-3.6 0-6.5-3.4-6.5-7.5V31.2c0-4.1 2.9-7.5 6.5-7.5h238.6m0-1.9H49.2c-4.7 0-8.4 4.2-8.4 9.4v150.6c0 5.2 3.8 9.4 8.4 9.4h238.7c4.7 0 8.4-4.2 8.4-9.4V31.2c0-5.2-3.8-9.4-8.5-9.4h0z" fill="#b9c1db"/></svg>