<svg xmlns="http://www.w3.org/2000/svg" xmlns:xlink="http://www.w3.org/1999/xlink" viewBox="0 0 337 213" xmlns:v="https://vecta.io/nano"><path d="M199 165.2l-9.3-57.6-11.1 48-3.7-23.1-10 15-6.3-44.2-9.1 34.6-7.5-87.8-9.6 111L119 95.3l-3.1 31.2-8.5-21.4-16 27.7-6.2-47.4-11.6 73-17.1-27.7-13 29-4.1-38.2-3.2 18.6c-.1.5-.6.9-1.1.8s-.9-.6-.8-1.1l5.7-32.4 4.8 44.9 11.5-25.7 16.3 26.3 12.9-81.3 7.2 55.2 15.1-26.2 7 17.6 3.6-36.2 13.3 65.3 9.4-109h2l7.3 87.9 8.7-32.9 7 48.7 10-14.9 2.9 18.1 11.1-48 8.5 52.6 10.1-102.1 10.5 84.6 10.1-38.8 4.5 41.6 16.1-55.4v54.6l8.3-35.4 4.8 49.9 7.4-10 2.7 8.2 14.6-84.6 20 91.5c.1.5-.2 1.1-.8 1.2-.5.1-1.1-.2-1.2-.8l-17.8-81.6-14.3 82.5-4-12.1-8.2 11-4.1-43-9.5 40.3V93.7l-15 51.7-4.4-40.8-10 38.4-9.6-77.3-9.8 99.5z" fill="#ffa897"/><path d="M45.2 169.4l-4.6-25.2-4.5 5.8a1.08 1.08 0 0 1-1.4.2 1.08 1.08 0 0 1-.2-1.4l7.2-9.2 4.2 22.8 9-22.3 7 11.9 8.3-8.5 4.1 11.8 2.5-6 8 7.5 7.1-19.2 6.9 20.8 13.7-16.6 6.4 11.2 11.2-22.6 8.2 25.4 4.9-7.9 8.4 15.4 6.8-25.4 5.2 14.9 3.4-10.3 10.4 14.4 4.4-10.5 4.4 5.9 5.9-15.5 15.4 25.1 5-13.2 3.6 4.5 3.8-10.8 5.2 8.4 6.6-14.9 6.5 9.9 7.7-24.3 10.8 35.7 10-8.4 3.2 6 6.5-15.9 12.7 19.5 9.3-12.4 9.6 8.2c.4.4.5 1 .1 1.4s-1 .5-1.4.1l-8-6.8-9.7 13-12.2-18.7-6.7 16.3-4.1-7.5-10.5 8.8-9.8-32.5-7 22.2-6.7-10.3-6.6 15-5-8.1-3.6 10.2-3.7-4.5-5.2 13.8-15.4-25.1-5.8 15.2-4.4-6-4.4 10.5-10.2-14.1-4 12.2-5-14.3-6.4 24-9.2-16.8-5.4 8.6-8-24.8-10.7 21.6-6.8-12L98 162.2l-6.3-18.9-6.1 16.7-8.1-7.5-3.4 8.2-4.7-13.7-7.8 8-6.2-10.6-10.2 25z" fill="#fd6880"/><g fill="#b9c1db"><path d="M307.3 179.3H29.7c-.6 0-1-.5-1-1V34.4c0-.6.5-1 1-1a1.08 1.08 0 0 1 1 1v142.8h276.6c.6 0 1 .5 1 1s-.4 1.1-1 1.1z"/><use xlink:href="#B"/><use xlink:href="#C"/><use xlink:href="#C" y="-21.4"/><use xlink:href="#C" y="-42.8"/><use xlink:href="#D"/><use xlink:href="#C" y="-85.7"/><use xlink:href="#C" y="-107.1"/><use xlink:href="#D" y="-64.3"/><use xlink:href="#B" x="23.6"/><use xlink:href="#B" x="47.3"/><use xlink:href="#B" x="70.9"/><use xlink:href="#D" x="112.2" y="79.2"/><use xlink:href="#B" x="118.2"/><use xlink:href="#B" x="141.8"/><use xlink:href="#B" x="165.5"/><use xlink:href="#B" x="189.1"/><use xlink:href="#D" x="230.4" y="79.2"/><path d="M287,178.2c0,1.8-1.5,3.3-3.3,3.3s-3.3-1.5-3.3-3.3c0-1.8,1.5-3.3,3.3-3.3S287,176.4,287,178.2z"/><use xlink:href="#D" x="277.7" y="79.2"/></g><defs ><path id="B" d="M50.6 178.2a3.33 3.33 0 0 1-3.3 3.3 3.33 3.33 0 0 1-3.3-3.3 3.33 3.33 0 0 1 3.3-3.3c1.8.1 3.3 1.5 3.3 3.3z"/><path id="C" d="M32.9 163.3a3.33 3.33 0 0 1-3.3 3.3 3.33 3.33 0 0 1-3.3-3.3 3.33 3.33 0 0 1 3.3-3.3c1.9 0 3.3 1.5 3.3 3.3z"/><path id="D" d="M32.9 99a3.33 3.33 0 0 1-3.3 3.3 3.33 3.33 0 0 1-3.3-3.3 3.33 3.33 0 0 1 3.3-3.3c1.9.1 3.3 1.5 3.3 3.3z"/></defs></svg>