<svg xmlns="http://www.w3.org/2000/svg" viewBox="0 0 337 213" xmlns:v="https://vecta.io/nano"><path d="M168.5 12.6c-51.8 0-93.9 42-93.9 93.9s42 93.9 93.9 93.9 93.9-42 93.9-93.9-42.1-93.9-93.9-93.9zm0 146.3c-29 0-52.4-23.5-52.4-52.4s23.5-52.4 52.4-52.4c29 0 52.4 23.5 52.4 52.4s-23.4 52.4-52.4 52.4z" fill="#6988ff"/><path d="M168.5 200.4c51.3 0 92.9-41.1 93.8-92.2h-41.5c-.9 28.2-24 50.8-52.4 50.8s-51.5-22.6-52.4-50.8H74.7c.9 51 42.5 92.2 93.8 92.2z" fill="#ffa897"/><path d="M168.5 12.6h-1.6v41.5c.6 0 1.1-.1 1.6-.1 29 0 52.4 23.5 52.4 52.4 0 .6-.1 1.1-.1 1.6h41.5v-1.6c.1-51.7-42-93.8-93.8-93.8z" fill="#ff6a84"/><path d="M220.9 108.1a52.25 52.25 0 0 1-18.9 38.7l25.8 32.4c20.7-16.9 34-42.4 34.5-71.1h-41.4z" fill="#95cbff"/></svg>