<svg xmlns="http://www.w3.org/2000/svg" xmlns:xlink="http://www.w3.org/1999/xlink" viewBox="0 0 337 213" xmlns:v="https://vecta.io/nano"><g fill="#b9c1db"><path d="M32.4,31.7v150.6c0,0.5-0.5,1-1,1s-1-0.4-1-1V30.7c0-0.5,0.5-1,1-1"/><use xlink:href="#B"/><use xlink:href="#B" y="23"/><use xlink:href="#B" y="46.1"/><use xlink:href="#B" y="69.1"/><use xlink:href="#B" y="92.2"/><use xlink:href="#B" y="115.2"/><path d="M30.4,181.3V30.7c0-0.5,0.5-1,1-1s1,0.4,1,1v151.6c0,0.5-0.5,1-1,1"/></g><path d="M188.001 39.823v15.5h-147.1v-15.5zm24.127 23.145v15.5h-171.2v-15.5zm75.534 23.236v15.5h-246.7v-15.5zm21.592 23.178v15.5h-268.3v-15.5zM167.86 132.246v15.5H40.96v-15.5zm18.996 23.175v15.5h-146v-15.5z" fill="#fd6880"/><path d="M188.046 39.779v15.5h-93.6v-15.5z" fill="#6988ff"/><path d="M188.019 39.806v15.5h-39.9v-15.5z" fill="#ffa897"/><path d="M212.09 63.005v15.5H71.99v-15.5z" fill="#6988ff"/><path d="M212.123 62.972v15.5h-40.4v-15.5z" fill="#ffa897"/><path d="M287.59 86.176v15.5h-189v-15.5z" fill="#6988ff"/><path d="M287.667 86.198v15.5h-72.5v-15.5z" fill="#ffa897"/><path d="M309.208 109.328v15.5h-178.2v-15.5z" fill="#6988ff"/><path d="M309.234 109.302v15.5h-43.1v-15.5z" fill="#ffa897"/><path d="M167.834 132.272v15.5h-57v-15.5z" fill="#6988ff"/><path d="M167.884 132.222v15.5h-39.3v-15.5z" fill="#ffa897"/><path d="M186.941 155.435v15.5h-106.2v-15.5z" fill="#6988ff"/><path d="M186.911 155.365v15.5h-39.8v-15.5z" fill="#ffa897"/><defs ><path id="B" d="M31.4 51.1c-1.8 0-3.3-1.4-3.3-3.2s1.5-3.2 3.3-3.2 3.3 1.4 3.3 3.2-1.5 3.2-3.3 3.2z"/></defs></svg>