<svg xmlns="http://www.w3.org/2000/svg" viewBox="0 0 337 213" xmlns:v="https://vecta.io/nano"><path d="M98.8 17.6l20.8 5.9c1 .3 2 .2 2.9-.1l8.9-3.1c1.1-.4 2.2-.4 3.3 0l19.5 6.9c.6.2 1.2.3 1.8.3l16-.5c.9 0 1.7-.3 2.5-.8l3-1.9c1.9-1.2 4.4-1 6 .6l1.8 1.7c2.2 2.1 2 5.7-.4 7.5l-5.8 4.3a4.77 4.77 0 0 0-1.2 6.5l2 3.2c.5.9 1.3 1.5 2.3 1.9l7.6 3.2c3.3 1.4 7-1.2 6.8-4.8l-.3-5c-.2-3.1 2.6-5.6 5.6-5.1l12.1 1.9c1.4.2 2.7 1.1 3.5 2.3l9 15.1c1.5 2.6.4 5.9-2.3 7L208 71.4c-.9.4-1.6 1-2.2 1.7l-6 8.7-5.9 9.5c-1.1 1.8-3.3 2.7-5.4 2.1l-7.9-2.1c-1.4-.4-2.9-.1-4.1.7l-1.7 1.2c-1.9 1.3-2.6 3.8-1.7 5.9l.7 1.8c.9 2.1 3 3.3 5.2 3l2.2-.3a3.3 3.3 0 0 1 3.6 2.5l.4 1.6c.2.9.9 1.5 1.8 1.6h.5c1.6-.2 3 1 3.2 2.5l.2 1.5c.3 2.4 2.6 3.9 4.9 3.3l8.6-2.5c2.1-.6 4.3-.5 6.3.3l20.4 8.2 3.6 5.7c.7 1 1.7 1.9 2.9 2.3l10.5 3.7c3 1.1 4.5 4.4 3.4 7.3l-5.5 14.5c-.5 1.3-1.4 2.4-2.7 3l-9.2 4.8a5.09 5.09 0 0 0-1.6 1.3L216.2 184c-.7.9-1.2 1.9-1.4 3.1l-1.1 9.7c-.5 4.8-6.4 6.8-9.7 3.3-1-1.1-1.6-2.5-1.6-3.9v-22.8c0-.4 0-.8.1-1.1l3.5-17c.4-1.8-.1-3.6-1.4-5l-10-10.8c-1.3-1.4-1.8-3.4-1.3-5.3l2.6-10c.4-1.7-.7-3.3-2.5-3.4h-.3c-2-.2-3.9-1.3-5-3l-1.4-2.2c-1-1.5-2.5-2.7-4.2-3.2l-19.8-6.4L140 79.1c-.8-.9-1.2-2-1.2-3.2v-10c0-1.2-.4-2.3-1.2-3.2L125 47.9c-.6-.7-1.3-1.2-2.1-1.5L110 42c-1.6-.6-3.4-.2-4.7.9l-4.5 3.7c-1.4 1.2-3.3 1.4-5 .7l-4.7-2c-2.4-1-3.6-3.8-2.7-6.2l.4-.8c.9-1.6.9-3.5-.1-5l-3-4.9c-1.5-2.5-.5-5.7 2.1-6.9l7.6-3.6c1-.5 2.2-.6 3.4-.3zm97-4.8c.4 0 .7.1 1.1.2l.5.3 13.4 9.1c.3.2.5.4.7.7l.2.4 3.6 8.4c.7 1.7-.5 3.6-2.3 3.6h-.6l-8.6-1.6c-1.6-.3-2.5-2-2-3.5l.2-.4c.7-1.1.5-2.6-.5-3.4l-.5-.4-15.1-7.6c-.5-.3-1.1-.3-1.7-.2l-.6.2-7.7 3.3c-1 .4-2.2.2-2.9-.6l-.4-.5-2.1-3.6c-.9-1.5 0-3.4 1.6-3.9l.6-.1c0 .2 23.1-.4 23.1-.4zm-55.4-.1c1-1.2 2.7-1.8 4.2-1.4l.8.2 6.1 2.5c.5.2 1 .3 1.5.3h.7l4.7-.6c1.2-.1 2.4.2 3.3.9l.6.6.4.4c2.1 2.6.5 6.5-2.6 7l-.8.1h-9c-.4 0-.8-.1-1.2-.2l-.6-.2-6.5-3c-2.7-1-3.5-4.4-1.6-6.6h0z" fill-rule="evenodd" fill="#b9c1db"/><path d="M234.7 149.5a9.39 9.39 0 1 1 0 18.8 9.39 9.39 0 0 1-9.4-9.4c0-5.3 4.2-9.4 9.4-9.4zM193 112c10.3 0 18.7 8.4 18.7 18.7s-8.4 18.7-18.7 18.7-18.7-8.4-18.7-18.7S182.7 112 193 112zm-24.5-42c2.6 0 4.7 2.1 4.7 4.7s-2.1 4.7-4.7 4.7-4.7-2.1-4.7-4.7 2.1-4.7 4.7-4.7zm56.8-35.5c10.3 0 18.7 8.4 18.7 18.7s-8.4 18.7-18.7 18.7-18.7-8.4-18.7-18.7 8.4-18.7 18.7-18.7zm-100.5 5.3a9.39 9.39 0 1 1 0 18.8 9.39 9.39 0 1 1 0-18.8z" fill="#ff6a84"/></svg>