<svg xmlns="http://www.w3.org/2000/svg" xmlns:xlink="http://www.w3.org/1999/xlink" viewBox="0 0 337 213" xmlns:v="https://vecta.io/nano"><path d="M188.382 40.505v15.3h-147.7v-15.3z" fill="#fd6880"/><path d="M210.657 63.477v15.3h-170v-15.3z" fill="#ffa897"/><path d="M287.926 86.555v15.3h-247.2v-15.3z" fill="#fd6880"/><path d="M308.914 109.513v15.3h-268.2v-15.3z" fill="#ffa897"/><path d="M167.18 132.298v15.3H40.68v-15.3z" fill="#fd6880"/><path d="M186.588 155.337v15.3h-145.8v-15.3z" fill="#ffa897"/><g fill="#b9c1db"><path d="M32.4,31.7v150.6c0,0.5-0.5,1-1,1s-1-0.4-1-1V30.7c0-0.5,0.5-1,1-1"/><use xlink:href="#B"/><use xlink:href="#B" y="23"/><use xlink:href="#B" y="46.1"/><use xlink:href="#B" y="69.1"/><use xlink:href="#B" y="92.2"/><use xlink:href="#B" y="115.2"/><path d="M30.4,181.3V30.7c0-0.5,0.5-1,1-1s1,0.4,1,1v151.6c0,0.5-0.5,1-1,1"/></g><defs ><path id="B" d="M31.4 51.1c-1.8 0-3.3-1.4-3.3-3.2s1.5-3.2 3.3-3.2 3.3 1.4 3.3 3.2-1.5 3.2-3.3 3.2z"/></defs></svg>