<svg xmlns="http://www.w3.org/2000/svg" viewBox="0 0 337 213" fill-rule="evenodd" xmlns:v="https://vecta.io/nano"><path d="M182.3 112.2c1.7.5 3.2 1.7 4.1 3.2l1.4 2.2c1.1 1.7 2.9 2.7 4.9 2.9h.3c1.7.1 2.8 1.7 2.4 3.4l-2.5 9.8c-.5 1.8 0 3.8 1.3 5.2l9.8 10.5c1.2 1.3 1.7 3.1 1.4 4.9l-3.4 16.6c-.1.4-.1.7-.1 1.1v22.3c0 1.4.5 2.8 1.5 3.8 3.2 3.4 9 1.5 9.5-3.2l1.1-9.5c.1-1.1.6-2.2 1.3-3l16.1-18.4c.4-.5 1-.9 1.6-1.3l9-4.7c1.2-.6 2.1-1.7 2.6-2.9l5.4-14.2c1.1-2.9-.4-6.1-3.3-7.2l-10.3-3.6c-1.2-.4-2.1-1.2-2.8-2.2l-3.6-5.6-20-8c-2-.8-4.1-.9-6.2-.3l-8.4 2.4c-2.3.6-4.5-.9-4.8-3.2l-.2-1.5c-.2-1.5-1.6-2.6-3.1-2.5-1 .1-2-.6-2.3-1.6l-.7-1.4c0 .2-2 6-2 6z" fill="#b9c1db"/><path d="M139.4 72.8v3.8c0 1.1.4 5 1.1 5.9l22.4 23.5 19.4 6.3c1.1.4 1.9-1.6 2.3-6.1a3.18 3.18 0 0 0-3.5-2.4l-2.2.3c-2.1.3-4.2-1-5-3l-.7-1.7c-.9-2.1-.1-4.5 1.7-5.8l1.6-1.1c1.2-.8 2.6-1.1 4-.7l7.7 2.1c2 .5 4.2-.3 5.3-2.1l5.8-9.3 5.9-8.6c.2-.3 1.1-.8 1.3-1.1h-67.1z" fill="#95cbff"/><path d="M96.8 19.7c.8-.4 1.6-.5 2.5-.4l.9.2 20.3 5.8c.7.2 1.5.2 2.2.1l.7-.2 8.7-3.1c.8-.3 1.6-.3 2.4-.2l.8.2 19.1 6.8 1.2.3h.6l9.8-.3v43.9h-26.5v-6c0-.9-.2-1.7-.7-2.4l-.5-.7L126 49.2c-.4-.4-.8-.8-1.3-1.1l-.8-.4-12.6-4.3c-1.3-.5-2.7-.3-3.9.4l-.7.5-4.4 3.6c-1.1.9-2.6 1.3-4 1l-.8-.3-4.6-1.9a4.83 4.83 0 0 1-2.7-6l.4-.8c.7-1.3.8-2.8.3-4.1l-.6-.8-2.9-4.8c-1.3-2.2-.7-4.9 1.3-6.4l.7-.4 7.4-3.7h0zm44.2-5c1-1.2 2.6-1.7 4.1-1.4l.8.2 5.9 2.5c.5.2.9.3 1.4.3h.7l4.6-.6c1.2-.1 2.3.2 3.2.9l.6.6.3.4c2.1 2.6.5 6.3-2.6 6.9l-.7.1h-8.9c-.4 0-.8-.1-1.2-.2l-.6-.2-6.3-2.9c-2.4-1.2-3.2-4.5-1.3-6.6z" fill="#6988ff"/><path d="M177.2 26.1c1.6-1 3.7-1 5.2 0l.6.5 1.8 1.7c2 1.8 2 4.9.2 6.8l-.7.6-5.7 4.2c-1.8 1.3-2.4 3.7-1.6 5.7l.4.7 2 3.1c.4.6.9 1.2 1.6 1.6l.7.3 7.4 3.1c3 1.3 6.3-.8 6.6-3.9v-.8l-.3-4.9c-.2-2.7 2-5 4.7-5l.8.1 11.9 1.8c1.1.2 2.1.7 2.9 1.6l.5.7 8.8 14.8c1.3 2.3.6 5.1-1.5 6.5l-.8.4-15.6 6.5-.4.3-.4.3h-40.5V28.9l5.9-.2a3.53 3.53 0 0 0 1.7-.4l.8-.4c.1 0 3-1.8 3-1.8zm18-11.4c.4 0 .7.1 1 .2l.5.2 13.1 9c.3.2.5.4.7.7l.2.4 3.5 8.2c.7 1.7-.5 3.5-2.2 3.6h-.6l-8.4-1.5c-1.6-.3-2.5-1.9-2-3.4l.3-.5c.7-1.1.4-2.5-.5-3.3l-.5-.4-14.8-7.4c-.5-.2-1.1-.3-1.6-.2l-.5.2-7.6 3.2c-1 .4-2.1.2-2.8-.6l-.4-.5-2-3.5c-.9-1.5 0-3.4 1.5-3.8l.6-.1c0 .1 22.5-.5 22.5-.5z" fill="#ff6a84"/></svg>