<?xml version="1.0" encoding="utf-8"?>
<!-- Generator: Adobe Illustrator 25.4.1, SVG Export Plug-In . SVG Version: 6.00 Build 0)  -->
<svg version="1.1" id="Layer_1" xmlns:v="https://vecta.io/nano"
	 xmlns="http://www.w3.org/2000/svg" xmlns:xlink="http://www.w3.org/1999/xlink" x="0px" y="0px" viewBox="0 0 337 213"
	 style="enable-background:new 0 0 337 213;" xml:space="preserve">
<style type="text/css">
	.st0{fill-rule:evenodd;clip-rule:evenodd;fill:#95CBFF;}
	.st1{fill-rule:evenodd;clip-rule:evenodd;fill:#B9C1DB;}
</style>
<g>
	<path class="st0" d="M253.8,98.7c0,6.5-3.7,11-9.9,11c-6,0-9.8-4.5-9.8-11c0-6.5,3.7-11,9.8-11C250.1,87.7,253.8,92.1,253.8,98.7z
		 M240.8,127.7l26.9-38.5c0.5-0.7,1.1-1.1,1.8-1.1c1.3,0,2.2,1,2.2,2.1c0,0.5-0.1,1-0.5,1.6l-26.9,38.5c-0.5,0.7-1.1,1.1-1.8,1.1
		c-1.3,0-2.2-1-2.2-2.1C240.3,128.8,240.4,128.3,240.8,127.7L240.8,127.7z M238.9,98.7c0,4.2,1.9,6.5,5.2,6.5s5.2-2.3,5.2-6.5
		c0-4.1-1.9-6.5-5.2-6.5C240.8,92.1,238.9,94.5,238.9,98.7L238.9,98.7z M268.1,109.7c6,0,9.9,4.5,9.9,11c0,6.5-3.7,11-9.9,11
		c-6,0-9.8-4.5-9.8-11C258.3,114.2,262.1,109.7,268.1,109.7z M268.1,127.2c3.3,0,5.2-2.3,5.2-6.5c0-4.1-1.9-6.5-5.2-6.5
		c-3.1,0-5.2,2.4-5.2,6.5C263,124.9,265,127.2,268.1,127.2L268.1,127.2z"/>
	<path class="st1" d="M84.5,114.7l-8.7,9.4v23.2H59V65.9h16.8v36.8l7.4-10.1l20.8-26.8h20.7l-28.9,36.1l29.7,45.2h-19.9
		C105.4,147.3,84.5,114.7,84.5,114.7z M148.4,118.5v28.6h-16.8V65.9h31.8c6,0,11.5,1.1,16.1,3.4c4.6,2.2,8.2,5.4,10.8,9.5
		c2.5,4.1,3.7,8.8,3.7,14c0,8-2.8,14.3-8.2,18.8c-5.4,4.6-13,6.9-22.7,6.9C163,118.5,148.4,118.5,148.4,118.5z M148.4,105h15
		c4.5,0,7.9-1.1,10.1-3.1c2.3-2.1,3.5-5.1,3.5-8.9c0-4-1.2-7.2-3.5-9.7c-2.3-2.4-5.6-3.7-9.7-3.7h-15.3V105H148.4z M223.3,147.3
		h-16.8V65.9h16.8V147.3L223.3,147.3L223.3,147.3z"/>
</g>
</svg>
