<?xml version="1.0" encoding="utf-8"?>
<!-- Generator: Adobe Illustrator 25.4.1, SVG Export Plug-In . SVG Version: 6.00 Build 0)  -->
<svg version="1.1" id="Layer_1" xmlns:v="https://vecta.io/nano"
	 xmlns="http://www.w3.org/2000/svg" xmlns:xlink="http://www.w3.org/1999/xlink" x="0px" y="0px" viewBox="0 0 337 213"
	 style="enable-background:new 0 0 337 213;" xml:space="preserve">
<style type="text/css">
	.st0{fill:#95CBFF;}
	.st1{fill-rule:evenodd;clip-rule:evenodd;fill:#B9C1DB;}
</style>
<g>
	<path class="st0" d="M267.6,123.9c9.1,0,16.4-7.4,16.4-16.4s-7.4-16.4-16.4-16.4s-16.4,7.4-16.4,16.4S258.5,123.9,267.6,123.9z"/>
	<path class="st1" d="M89,147.3H72.6V84.2L53,90.3V77l34.2-12.2H89L89,147.3C89,147.3,89,147.3,89,147.3z M172.4,147.3h-56.5v-11.2
		l26.6-28.4c3.6-4,6.4-7.5,8.1-10.5c1.7-3,2.6-5.9,2.6-8.5c0-3.6-0.9-6.6-2.7-8.6c-1.9-2.1-4.5-3.1-8-3.1c-3.7,0-6.6,1.2-8.7,3.9
		c-2.1,2.5-3.2,5.9-3.2,10.1h-16.4c0-5,1.2-9.6,3.6-13.8c2.4-4.1,5.7-7.3,10.2-9.7c4.4-2.4,9.3-3.5,14.9-3.5c8.5,0,15.1,2,19.8,6.1
		c4.7,4.1,7.1,9.8,7.1,17.3c0,4.1-1.1,8.2-3.1,12.5c-2.1,4.2-5.7,9.2-10.8,14.8l-18.9,19.4h35.5V147.3z M199.1,98.9h8.7
		c4.1,0,7.2-1,9.2-3.1s3-4.9,3-8.2s-1-5.9-3-7.7c-2-1.9-4.7-2.7-8.2-2.7c-3.1,0-5.7,0.9-7.8,2.6c-2.1,1.7-3.1,4-3.1,6.7h-16.4
		c0-4.4,1.1-8.2,3.5-11.6c2.4-3.4,5.6-6.1,9.7-8c4.2-1.9,8.7-2.9,13.8-2.9c8.7,0,15.6,2.1,20.5,6.2c5,4.1,7.5,10,7.5,17.3
		c0,3.7-1.1,7.2-3.5,10.5c-2.2,3.1-5.4,5.6-9.1,7.3c4.6,1.6,8.1,4.1,10.5,7.5c2.2,3.4,3.5,7.2,3.5,11.8c0,7.3-2.6,13.2-8,17.7
		c-5.4,4.5-12.5,6.6-21.2,6.6c-8.2,0-14.9-2.1-20.2-6.5c-5.2-4.4-7.8-10.1-7.8-17.2h16.4c0,3.1,1.1,5.6,3.5,7.6c2.4,2,5.2,3,8.6,3
		c3.9,0,7-1,9.2-3.1c2.2-2.1,3.4-4.7,3.4-8.2c0-8.2-4.5-12.3-13.6-12.3h-8.7L199.1,98.9L199.1,98.9L199.1,98.9z"/>
</g>
</svg>
