<svg xmlns="http://www.w3.org/2000/svg" xmlns:xlink="http://www.w3.org/1999/xlink" viewBox="0 0 337 213" xmlns:v="https://vecta.io/nano"><g fill="#b9c1db"><path d="M305.2 180.8H27.6c-.6 0-1-.5-1-1V36c0-.6.5-1 1-1a1.08 1.08 0 0 1 1 1v142.8h276.6c.6 0 1 .5 1 1s-.4 1-1 1z"/><use xlink:href="#B"/><use xlink:href="#C"/><use xlink:href="#B" x="47.3"/><use xlink:href="#B" x="70.9"/><use xlink:href="#C" x="70.9"/><use xlink:href="#B" x="118.2"/><use xlink:href="#C" x="118.2"/><use xlink:href="#B" x="165.5"/><use xlink:href="#B" x="189.1"/><path d="M261.2,179.8c0,1.8-1.5,3.3-3.3,3.3s-3.3-1.5-3.3-3.3c0-1.8,1.5-3.3,3.3-3.3S261.2,178,261.2,179.8z"/><use xlink:href="#B" x="236.4"/><path d="M308.5 179.8a3.33 3.33 0 0 1-3.3 3.3 3.33 3.33 0 0 1-3.3-3.3 3.33 3.33 0 0 1 3.3-3.3 3.33 3.33 0 0 1 3.3 3.3zM31 161.8a3.33 3.33 0 0 1-3.3 3.3 3.33 3.33 0 0 1-3.3-3.3 3.33 3.33 0 0 1 3.3-3.3c1.9 0 3.3 1.4 3.3 3.3zm0-21.5a3.33 3.33 0 0 1-3.3 3.3 3.33 3.33 0 0 1-3.3-3.3 3.33 3.33 0 0 1 3.3-3.3c1.9 0 3.3 1.5 3.3 3.3z"/><use xlink:href="#C" x="-41.1" y="-60.9"/><path d="M31 97.5a3.33 3.33 0 0 1-3.3 3.3 3.33 3.33 0 0 1-3.3-3.3 3.33 3.33 0 0 1 3.3-3.3c1.9 0 3.3 1.5 3.3 3.3zM31 76a3.33 3.33 0 0 1-3.3 3.3 3.33 3.33 0 0 1-3.3-3.3 3.33 3.33 0 0 1 3.3-3.3c1.9.1 3.3 1.5 3.3 3.3zm0-21.4a3.33 3.33 0 0 1-3.3 3.3 3.33 3.33 0 0 1-3.3-3.3 3.33 3.33 0 0 1 3.3-3.3c1.9 0 3.3 1.5 3.3 3.3zm0-21.4a3.33 3.33 0 0 1-3.3 3.3 3.33 3.33 0 0 1-3.3-3.3 3.33 3.33 0 0 1 3.3-3.3c1.9 0 3.3 1.5 3.3 3.3z"/></g><ellipse cx="70.1" cy="138.2" rx="19.3" ry="19.8" fill="#6988ff"/><path d="M92.3 90.2c0 7.7-6.4 14.2-13.9 14.2s-13.9-6.5-13.9-14.2S70.9 77 78.4 77c7.5.1 13.9 5.6 13.9 13.2z" fill="#ff6a84"/><g fill="#95cbff"><path d="M117.9 145.2c0 3.4-2.7 6.1-6 6.1s-5.9-2.7-5.9-6.1 2.7-6.1 5.9-6.1c3.3 0 6 2.8 6 6.1zm14.6-37.6c0 9.5-7.9 17.5-17.1 17.5s-16.4-8-16.4-17.5 7.1-16.7 16.4-16.7 17.1 7.2 17.1 16.7z"/><ellipse cx="106" cy="63.4" rx="6.9" ry="7.1"/></g><path d="M162 94.6c0 6-5.3 10.7-11.2 10.7-5.8 0-10.4-4.7-10.4-10.7 0-5.9 4.6-10.7 10.4-10.7 5.9.1 11.2 4.8 11.2 10.7z" fill="#6988ff"/><path d="M167.8 136c0 9.6-7.7 16.7-17.1 16.7s-17.1-7.1-17.1-16.7 7.7-17.5 17.1-17.5c9.3 0 17.1 7.9 17.1 17.5z" fill="#ffa897"/><ellipse cx="280" cy="65.7" rx="19.3" ry="19.8" fill="#6988ff"/><path d="M257.9 113.7c0-7.7 6.4-14.2 13.9-14.2s13.9 6.5 13.9 14.2-6.4 13.2-13.9 13.2c-7.6 0-13.9-5.5-13.9-13.2z" fill="#ff6a84"/><g fill="#95cbff"><path d="M232.3 58.7c0-3.4 2.7-6.1 6-6.1s5.9 2.7 5.9 6.1-2.7 6.1-5.9 6.1c-3.3 0-6-2.7-6-6.1zm-14.7 37.7c0-9.5 7.9-17.5 17.1-17.5s16.4 8 16.4 17.5-7.1 16.7-16.4 16.7c-9.2 0-17.1-7.3-17.1-16.7z"/><ellipse cx="244.2" cy="140.5" rx="6.9" ry="7.1"/></g><path d="M188.1 109.4c0-6 5.3-10.7 11.2-10.7s10.4 4.7 10.4 10.7c0 5.9-4.6 10.7-10.4 10.7-5.8-.1-11.2-4.8-11.2-10.7z" fill="#6988ff"/><path d="M182.4 68c0-9.6 7.7-16.7 17.1-16.7s17.1 7.1 17.1 16.7-7.7 17.5-17.1 17.5-17.1-7.9-17.1-17.5z" fill="#ffa897"/><defs ><path id="B" d="M48.5 179.8a3.33 3.33 0 0 1-3.3 3.3 3.33 3.33 0 0 1-3.3-3.3 3.33 3.33 0 0 1 3.3-3.3 3.33 3.33 0 0 1 3.3 3.3z"/><path id="C" d="M72.1 179.8a3.33 3.33 0 0 1-3.3 3.3 3.33 3.33 0 0 1-3.3-3.3 3.33 3.33 0 0 1 3.3-3.3c1.9 0 3.3 1.5 3.3 3.3z"/></defs></svg>