<svg xmlns="http://www.w3.org/2000/svg" xmlns:xlink="http://www.w3.org/1999/xlink" viewBox="0 0 337 213" xmlns:v="https://vecta.io/nano"><g fill="#b9c1db"><path d="M305.2 180.8H27.6c-.6 0-1-.5-1-1V36c0-.6.5-1 1-1a1.08 1.08 0 0 1 1 1v142.8h276.6c.6 0 1 .5 1 1s-.4 1-1 1z"/><use xlink:href="#B"/><use xlink:href="#C"/><use xlink:href="#B" x="47.3"/><use xlink:href="#B" x="70.9"/><use xlink:href="#C" x="70.9"/><use xlink:href="#B" x="118.2"/><use xlink:href="#C" x="118.2"/><use xlink:href="#B" x="165.5"/><use xlink:href="#B" x="189.1"/><path d="M261.2,179.8c0,1.8-1.5,3.3-3.3,3.3s-3.3-1.5-3.3-3.3c0-1.8,1.5-3.3,3.3-3.3S261.2,178,261.2,179.8z"/><use xlink:href="#B" x="236.4"/><path d="M308.5 179.8a3.33 3.33 0 0 1-3.3 3.3 3.33 3.33 0 0 1-3.3-3.3 3.33 3.33 0 0 1 3.3-3.3 3.33 3.33 0 0 1 3.3 3.3zM31 161.8a3.33 3.33 0 0 1-3.3 3.3 3.33 3.33 0 0 1-3.3-3.3 3.33 3.33 0 0 1 3.3-3.3c1.9 0 3.3 1.4 3.3 3.3zm0-21.5a3.33 3.33 0 0 1-3.3 3.3 3.33 3.33 0 0 1-3.3-3.3 3.33 3.33 0 0 1 3.3-3.3c1.9 0 3.3 1.5 3.3 3.3z"/><use xlink:href="#C" x="-41.1" y="-60.9"/><path d="M31 97.5a3.33 3.33 0 0 1-3.3 3.3 3.33 3.33 0 0 1-3.3-3.3 3.33 3.33 0 0 1 3.3-3.3c1.9 0 3.3 1.5 3.3 3.3zM31 76a3.33 3.33 0 0 1-3.3 3.3 3.33 3.33 0 0 1-3.3-3.3 3.33 3.33 0 0 1 3.3-3.3c1.9.1 3.3 1.5 3.3 3.3zm0-21.4a3.33 3.33 0 0 1-3.3 3.3 3.33 3.33 0 0 1-3.3-3.3 3.33 3.33 0 0 1 3.3-3.3c1.9 0 3.3 1.5 3.3 3.3zm0-21.4a3.33 3.33 0 0 1-3.3 3.3 3.33 3.33 0 0 1-3.3-3.3 3.33 3.33 0 0 1 3.3-3.3c1.9 0 3.3 1.5 3.3 3.3z"/></g><g fill="#ffa897"><use xlink:href="#D"/><use xlink:href="#D" x="54.6"/><path d="M222.9 130.2a.94.94 0 0 1-1-1V80.9a1 1 0 1 1 2 0v48.4c0 .5-.4.9-1 .9zm35.5 18.9a.94.94 0 0 1-1-1V99.8a1 1 0 1 1 2 0v48.4c0 .5-.4.9-1 .9zm37.2-12a.94.94 0 0 1-1-1V87.7a1 1 0 1 1 2 0v48.4a1.08 1.08 0 0 1-1 1zm-54.5-6.9a.94.94 0 0 1-1-1V80.9a1 1 0 1 1 2 0v48.4c0 .5-.4.9-1 .9zm-69.5-44.7a.94.94 0 0 1-1-1V36.1a1 1 0 1 1 2 0v48.4a1.08 1.08 0 0 1-1 1zm16.8 16.6a.94.94 0 0 1-1-1V52.7a1 1 0 1 1 2 0v48.4a1.08 1.08 0 0 1-1 1zm-69.8 33a.94.94 0 0 1-1-1V85.8a1 1 0 1 1 2 0v48.4c0 .5-.4.9-1 .9z"/></g><g fill="#ff6a84"><use xlink:href="#D" x="18.5"/><path d="M81.9 146.9a.94.94 0 0 1-1-1V97.5a.94.94 0 0 1 1-1 .94.94 0 0 1 1 1v48.4c0 .5-.4 1-1 1zm54.6-30.2a.94.94 0 0 1-1-1V67.3a1 1 0 1 1 2 0v48.4c0 .6-.5 1-1 1zm69.1 0a.94.94 0 0 1-1-1V67.3a1 1 0 1 1 2 0v48.4c0 .6-.5 1-1 1zm71.1 47.1a.94.94 0 0 1-1-1v-48.4a1 1 0 1 1 2 0v48.4a.94.94 0 0 1-1 1z"/><path d="M154.2 99.5a.94.94 0 0 1-1-1V50.1a1 1 0 1 1 2 0v48.4c0 .5-.4 1-1 1zm50.5-6.1c-.2 0-.3 0-.5-.1l-4.8-2.6c-.5-.3-.7-.9-.4-1.4s.9-.7 1.4-.4l4.8 2.6c.5.3.7.9.4 1.4-.2.3-.6.5-.9.5zm.9 13.9c-.4 0-.7-.2-.9-.6-.2-.5 0-1.1.5-1.3l7.4-3.5c.5-.2 1.1 0 1.3.5s0 1.1-.5 1.3l-7.4 3.5c-.2.1-.3.1-.4.1z"/></g><path d="M222.5 106c-.2 0-.4-.1-.6-.2l-5.6-4.3a1.08 1.08 0 0 1-.2-1.4 1.08 1.08 0 0 1 1.4-.2l5.6 4.3a1.08 1.08 0 0 1 .2 1.4c-.2.3-.5.4-.8.4zm.9 15.2c-.3 0-.7-.2-.9-.5-.3-.5-.1-1.1.4-1.4l8.3-4.8c.5-.3 1.1-.1 1.4.4s.1 1.1-.4 1.4l-8.3 4.8c-.2.1-.4.1-.5.1zm12.1-9.1c-.2 0-.4 0-.5-.2-.5-.3-.6-.9-.3-1.4l5.2-8.3c.3-.5.9-.6 1.4-.3s.6.9.3 1.4l-5.2 8.3c-.2.3-.5.5-.9.5zm12.6 6.1c-.2 0-.4-.1-.6-.2l-7-5.2a1.08 1.08 0 0 1-.2-1.4 1.08 1.08 0 0 1 1.4-.2l7 5.2a1.08 1.08 0 0 1 .2 1.4c-.2.3-.5.4-.8.4zm9.6 4.8h-.3l-6.1-1.7c-.5-.2-.8-.7-.7-1.2.2-.5.7-.8 1.2-.7l6.1 1.7c.5.2.8.7.7 1.2-.1.4-.5.7-.9.7zm.4 15.2c-.4 0-.7-.2-.9-.5-.3-.5-.1-1.1.4-1.4l7.4-3.9c.5-.3 1.1-.1 1.4.4s.1 1.1-.4 1.4l-7.4 3.9c-.2 0-.3.1-.5.1z" fill="#ffa897"/><path d="M276.8 133.8h-7.4a1 1 0 1 1 0-2h7.4a.94.94 0 0 1 1 1c0 .6-.5 1-1 1zm0 11.3a1.08 1.08 0 0 1-.7-.3c-.4-.4-.4-1 0-1.4l8.3-8.7c.4-.4 1-.4 1.4 0s.4 1 0 1.4l-8.3 8.7c-.2.2-.4.3-.7.3z" fill="#ff6a84"/><path d="M289.4 132.5c-.3 0-.6-.2-.8-.4-.3-.5-.2-1.1.3-1.4l6.5-4.3c.5-.3 1.1-.2 1.4.3s.2 1.1-.3 1.4l-6.5 4.3c-.2.1-.4.1-.6.1z" fill="#ffa897"/><path d="M65.2 125.1c-.4 0-.8-.2-.9-.6-.2-.5 0-1.1.5-1.3l7-3c.5-.2 1.1 0 1.3.5s0 1.1-.5 1.3l-7 3c-.1.1-.2.1-.4.1zm12.2-6c-.3 0-.7-.2-.9-.5-.3-.5-.1-1.1.3-1.4l4.3-2.6c.5-.3 1.1-.1 1.4.3.3.5.1 1.1-.3 1.4l-4.3 2.6c-.1.1-.3.2-.5.2zm12.2 15.6h-.2l-7.8-1.7a1.1 1.1 0 0 1-.8-1.2 1.1 1.1 0 0 1 1.2-.8l7.8 1.7a1.1 1.1 0 0 1 .8 1.2c-.2.5-.6.8-1 .8z" fill="#ff6a84"/><path d="M94.8 133.8c-.4 0-.7-.2-.9-.6-.2-.5 0-1.1.5-1.3l5.6-2.6c.5-.2 1.1 0 1.3.5s0 1.1-.5 1.3l-5.6 2.6c-.1.1-.3.1-.4.1zm6.1-13.4c-.4 0-.7-.2-.9-.5-.3-.5-.1-1.1.4-1.3l9.1-4.8c.5-.3 1.1-.1 1.3.4.3.5.1 1.1-.4 1.3l-9.1 4.8c-.1 0-.3.1-.4.1z" fill="#ffa897"/><path d="M59.2 144.3c-.3 0-.7-.2-.8-.5-.3-.5-.2-1.1.3-1.4l6.1-3.9c.5-.3 1.1-.2 1.4.3s.2 1.1-.3 1.4l-6.1 3.9c-.3.1-.5.2-.6.2z" fill="#ff6a84"/><path d="M53.5 145.6l-7.4-.4c-.6 0-1-.5-.9-1.1s.5-1 1.1-.9l7.4.4c.6 0 1 .5.9 1.1-.1.4-.6.9-1.1.9zm60.4-33.9c-.3 0-.5-.1-.7-.3-.4-.4-.4-1 0-1.4l4.8-4.8c.4-.4 1-.4 1.4 0s.4 1 0 1.4l-4.8 4.8c-.2.2-.4.3-.7.3zm4.8-18.7c-.3 0-.7-.2-.9-.5-.3-.5-.1-1.1.4-1.4l9.1-5.2c.5-.3 1.1-.1 1.4.4s.1 1.1-.4 1.4l-9.1 5.2c-.2.1-.4.1-.5.1z" fill="#ffa897"/><path d="M131.3 85.6c-.4 0-.7-.2-.9-.6-.2-.5 0-1.1.5-1.3l4.8-2.2c.5-.2 1.1 0 1.3.5s0 1.1-.5 1.3l-4.8 2.2c-.2.1-.3.1-.4.1zm5.2 9.6c-.4 0-.8-.2-.9-.6-.2-.5.1-1.1.6-1.3l7.8-3c.5-.2 1.1.1 1.3.6s-.1 1.1-.6 1.3l-7.8 3c-.2-.1-.3 0-.4 0zm10.8-7.9c-.3 0-.7-.2-.9-.5-.3-.5-.1-1.1.4-1.4l7-3.9c.5-.3 1.1-.1 1.4.4s.1 1.1-.4 1.4l-7 3.9c-.1.1-.3.1-.5.1zm7-27.8c-.3 0-.7-.2-.9-.5-.3-.5-.1-1.1.3-1.4l8.7-5.2c.5-.3 1.1-.1 1.4.3.3.5.1 1.1-.3 1.4l-8.7 5.2c-.2.2-.3.2-.5.2z" fill="#ff6a84"/><path d="M171.2 60h-.3l-6.5-1.7c-.5-.1-.9-.7-.7-1.2s.7-.9 1.2-.7l6.5 1.7c.5.1.9.7.7 1.2 0 .4-.4.7-.9.7zm7.4 16.9c-.3 0-.5-.1-.7-.3l-7.4-7.8c-.4-.4-.4-1 0-1.4s1-.4 1.4 0l7.4 7.8c.4.4.4 1 0 1.4-.2.2-.4.3-.7.3zm3.1.9c-.5 0-.9-.4-1-.9s.3-1 .9-1.1l6.5-.9c.5-.1 1 .3 1.1.9.1.5-.3 1-.9 1.1l-6.5.9h-.1zm6.9 13.9c-.5 0-.9-.4-1-.9s.3-1 .9-1.1l7.8-.9c.6-.1 1 .3 1.1.9s-.3 1-.9 1.1l-7.8.9h-.1z" fill="#ffa897"/><defs ><path id="B" d="M48.5 179.8a3.33 3.33 0 0 1-3.3 3.3 3.33 3.33 0 0 1-3.3-3.3 3.33 3.33 0 0 1 3.3-3.3 3.33 3.33 0 0 1 3.3 3.3z"/><path id="C" d="M72.1 179.8a3.33 3.33 0 0 1-3.3 3.3 3.33 3.33 0 0 1-3.3-3.3 3.33 3.33 0 0 1 3.3-3.3c1.9 0 3.3 1.5 3.3 3.3z"/><path id="D" d="M46.5 162.5a.94.94 0 0 1-1-1v-48.4a.94.94 0 0 1 1-1 .94.94 0 0 1 1 1v48.4c0 .6-.5 1-1 1z"/></defs></svg>