<svg xmlns="http://www.w3.org/2000/svg" xmlns:xlink="http://www.w3.org/1999/xlink" viewBox="0 0 337 213" xmlns:v="https://vecta.io/nano"><style><![CDATA[.F{opacity:.4}]]></style><path d="M27.1,96.1h282.8v47.8H27.1V96.1z" fill="#b9c1db"/><path d="M27.1 143.9h282.8v38.2c0 5.3-4.2 9.6-9.4 9.6h-264c-5.2 0-9.4-4.3-9.4-9.6v-38.2zm0-95.6h282.8v47.8H27.1V48.3z" fill="#fff"/><g fill="#414141"><use xlink:href="#B" class="F"/><use xlink:href="#B" x="-53.3" class="F"/><use xlink:href="#C" class="F"/><use xlink:href="#B" y="-47.8" class="F"/><use xlink:href="#B" x="-53.3" y="-47.8" class="F"/><use xlink:href="#C" y="-47.8" class="F"/><use xlink:href="#B" y="-95.6" class="F"/><use xlink:href="#B" x="-53.3" y="-95.6" class="F"/><use xlink:href="#C" y="-95.6" class="F"/><use xlink:href="#D" class="F"/><use xlink:href="#E" class="F"/><use xlink:href="#D" y="-47.8" class="F"/><use xlink:href="#E" y="-47.8" class="F"/><use xlink:href="#D" y="-95.6" class="F"/><use xlink:href="#E" y="-95.6" class="F"/></g><path d="M308 50.2v45.9 47.8 38.2c0 4.2-3.4 7.7-7.5 7.7h-264c-4.2 0-7.5-3.5-7.5-7.7v-38.2-47.8-45.9h279m1.9-1.9H27.1v47.8 47.8 38.2c0 5.3 4.2 9.6 9.4 9.6h264c5.2 0 9.4-4.3 9.4-9.6v-38.2-47.8-47.8h0z" fill="#b9c1db"/><path d="M36.5 21.3h264c5.2 0 9.4 4.3 9.4 9.6V50H27.1V30.9c0-5.3 4.2-9.6 9.4-9.6z" fill="#6988ff"/><defs ><path id="B" d="M183.7 169.2h-28.2c-.8 0-1.4-.6-1.4-1.4s.6-1.4 1.4-1.4h28.2c.8 0 1.4.6 1.4 1.4s-.7 1.4-1.4 1.4z"/><path id="C" d="M77.1 169.2H48.9c-.8 0-1.4-.6-1.4-1.4s.6-1.4 1.4-1.4h28.2c.8 0 1.4.6 1.4 1.4s-.6 1.4-1.4 1.4z"/><path id="D" d="M290.2 169.2H262c-.8 0-1.4-.6-1.4-1.4s.6-1.4 1.4-1.4h28.2c.8 0 1.4.6 1.4 1.4s-.6 1.4-1.4 1.4z"/><path id="E" d="M236.9 169.2h-28.2c-.8 0-1.4-.6-1.4-1.4s.6-1.4 1.4-1.4h28.2c.8 0 1.4.6 1.4 1.4s-.6 1.4-1.4 1.4z"/></defs></svg>