<svg xmlns="http://www.w3.org/2000/svg" viewBox="0 0 337 213" xmlns:v="https://vecta.io/nano"><path d="M313.048 86.732v15.3h-289.3v-15.3zm-.006-23.406v15.3h-289.3v-15.3zm.026-22.774v15.3h-289.3v-15.3zm-.072 91.728v15.3h-289.3v-15.3zm.006 23.406v15.3h-289.3v-15.3z" fill="#b9c1db"/><path d="M82.422 40.466v15.3h-58.6v-15.3z" fill="#fd6880"/><path d="M207.101 63.533v15.3h-183.3v-15.3zm83.41 22.937v15.3h-266.7v-15.3z" fill="#ffa897"/><path d="M313.022 109.506v15.3h-289.3v-15.3z" fill="#95cbff"/><path d="M129.274 132.304v15.3h-105.5v-15.3z" fill="#fd6880"/><path d="M181.083 155.243v15.3h-157.3v-15.3z" fill="#ffa897"/><path d="M48.9 31h1v144.4h-1zm110.5 0h1v144.4h-1zm110.4 0h1v144.4h-1z" fill="#fff"/></svg>