<svg xmlns="http://www.w3.org/2000/svg" xmlns:xlink="http://www.w3.org/1999/xlink" viewBox="0 0 337 213" xmlns:v="https://vecta.io/nano"><style><![CDATA[.G{opacity:.4}]]></style><path d="M27.4,96.9h282.8v47.8H27.4V96.9z" fill="#b9c1db"/><path d="M27.4 144.7h282.8V183c0 5.3-4.2 9.6-9.4 9.6h-264c-5.2 0-9.4-4.3-9.4-9.6v-38.3zm-.6-95.5h283.4V97H27.4l-.6-47.8z" fill="#fff"/><g fill="#414141"><use xlink:href="#B" class="G"/><use xlink:href="#B" x="-49.1" class="G"/><use xlink:href="#C" class="G"/><use xlink:href="#B" y="-47.8" class="G"/><use xlink:href="#B" x="-49.1" y="-47.8" class="G"/><use xlink:href="#C" y="-47.8" class="G"/><use xlink:href="#B" y="-95.6" class="G"/><use xlink:href="#B" x="-49.1" y="-95.6" class="G"/><use xlink:href="#C" y="-95.6" class="G"/><use xlink:href="#B" x="98.3" class="G"/><use xlink:href="#C" x="147.4" class="G"/><use xlink:href="#B" x="98.3" y="-47.8" class="G"/><use xlink:href="#C" x="147.4" y="-47.8" class="G"/><use xlink:href="#B" x="98.3" y="-95.6" class="G"/><use xlink:href="#C" x="147.4" y="-95.6" class="G"/></g><path d="M308.4 51v45.9 47.8V183c0 4.2-3.4 7.7-7.5 7.7h-264c-4.2 0-7.5-3.5-7.5-7.7v-38.2V97l-.7-46h279.7m1.8-1.8H26.8l.7 47.8v47.8V183c0 5.3 4.2 9.6 9.4 9.6h264c5.2 0 9.4-4.3 9.4-9.6v-38.2-47.9-47.7h-.1z" fill="#b9c1db"/><path d="M310.2,30c0-5.3-4.2-9.6-9.4-9.6H55.5v30.3h254.8V30z" fill="#6988ff"/><path d="M26.8,48.5v138.3c0,3.2,4.3,5.7,9.6,5.7h19.1v-144H26.8" fill="#ff6a84"/><path d="M35.9 20.5c-10.1 0-9.1 8.8-9.1 14.1l-.1 16.3h28.7V20.5H35.9z" fill="#6988ff"/><defs ><path id="B" d="M195.4 170h-26c-.7 0-1.3-.6-1.3-1.3s.6-1.3 1.3-1.3h26c.7 0 1.3.6 1.3 1.3s-.6 1.3-1.3 1.3z"/><path id="C" d="M97.1 170h-26c-.7 0-1.3-.6-1.3-1.3s.6-1.3 1.3-1.3h26c.7 0 1.3.6 1.3 1.3s-.5 1.3-1.3 1.3z"/></defs></svg>